<?xml version="1.0" encoding="UTF-8" standalone="no"?>
<!-- Created with Inkscape (http://www.inkscape.org/) -->

<svg
   xmlns:dc="http://purl.org/dc/elements/1.1/"
   xmlns:cc="http://creativecommons.org/ns#"
   xmlns:rdf="http://www.w3.org/1999/02/22-rdf-syntax-ns#"
   xmlns:svg="http://www.w3.org/2000/svg"
   xmlns="http://www.w3.org/2000/svg"
   xmlns:sodipodi="http://sodipodi.sourceforge.net/DTD/sodipodi-0.dtd"
   xmlns:inkscape="http://www.inkscape.org/namespaces/inkscape"
   id="svg2"
   version="1.1"
   inkscape:version="0.48.0 r9654"
   width="694.59009"
   height="677.67639"
   xml:space="preserve"
   sodipodi:docname="lab3_pulseshape1.pdf"><metadata
     id="metadata8"><rdf:RDF><cc:Work
         rdf:about=""><dc:format>image/svg+xml</dc:format><dc:type
           rdf:resource="http://purl.org/dc/dcmitype/StillImage" /><dc:title></dc:title></cc:Work></rdf:RDF></metadata><defs
     id="defs6"><clipPath
       clipPathUnits="userSpaceOnUse"
       id="clipPath18"><path
         d="m 0,0 0,5670 5670,0 L 5670,0 0,0 z"
         id="path20"
         inkscape:connector-curvature="0" /></clipPath><clipPath
       clipPathUnits="userSpaceOnUse"
       id="clipPath54"><path
         d="m 567.5,567.5 0,4535 4535,0 0,-4535 -4535,0 z"
         id="path56"
         inkscape:connector-curvature="0" /></clipPath></defs><sodipodi:namedview
     pagecolor="#ffffff"
     bordercolor="#666666"
     borderopacity="1"
     objecttolerance="10"
     gridtolerance="10"
     guidetolerance="10"
     inkscape:pageopacity="0"
     inkscape:pageshadow="2"
     inkscape:window-width="1366"
     inkscape:window-height="695"
     id="namedview4"
     showgrid="true"
     fit-margin-top="40"
     fit-margin-left="5"
     fit-margin-right="40"
     fit-margin-bottom="5"
     inkscape:zoom="0.83576326"
     inkscape:cx="360.66091"
     inkscape:cy="341.98561"
     inkscape:window-x="0"
     inkscape:window-y="25"
     inkscape:window-maximized="1"
     inkscape:current-layer="g12"
     inkscape:object-paths="true"
     inkscape:snap-grids="false"><inkscape:grid
       type="xygrid"
       id="grid3621"
       empspacing="5"
       visible="true"
       enabled="true"
       snapvisiblegridlinesonly="true" /></sodipodi:namedview><g
     id="g10"
     inkscape:groupmode="layer"
     inkscape:label="ink_ext_XXXXXX"
     transform="matrix(1.25,0,0,-1.25,4.8988644,678.90625)"><g
       id="g12"
       transform="scale(0.1,0.1)"><g
         id="g22"
         transform="scale(10,10)"><text
           transform="matrix(1,0,0,-1,316,408.25)"
           id="text36"><tspan
             style="font-size:20.75px;font-variant:normal;font-weight:bold;writing-mode:lr-tb;fill:#000000;fill-opacity:1;fill-rule:nonzero;stroke:none;font-family:Times New Roman;-inkscape-font-specification:Times-Bold"
             sodipodi:role="line"
             id="tspan38"
             x="0"
             y="0" /></text>
<text
           transform="matrix(1,0,0,-1,413.7117,408.25)"
           id="text40"><tspan
             style="font-size:20.75px;font-variant:normal;font-weight:normal;writing-mode:lr-tb;fill:#000000;fill-opacity:1;fill-rule:nonzero;stroke:none;font-family:Symbol;-inkscape-font-specification:Symbol"
             x="0"
             y="0"
             id="tspan42" /></text>
<text
           transform="matrix(1,0,0,-1,422.82108,408.25)"
           id="text44"><tspan
             style="font-size:20.75px;font-variant:normal;font-weight:bold;writing-mode:lr-tb;fill:#000000;fill-opacity:1;fill-rule:nonzero;stroke:none;font-family:Times New Roman;-inkscape-font-specification:Times-Bold"
             sodipodi:role="line"
             id="tspan46"
             x="0"
             y="0" /></text>
<text
           xml:space="preserve"
           style="font-size:22.39999962px;font-style:normal;font-variant:normal;font-weight:normal;font-stretch:normal;line-height:125%;letter-spacing:0px;word-spacing:0px;fill:#000000;fill-opacity:1;stroke:none;font-family:Times New Roman;-inkscape-font-specification:Times New Roman"
           x="263.79483"
           y="15.634033"
           id="text3609"
           sodipodi:linespacing="125%"
           transform="matrix(0,1,1,0,0,0)"><tspan
             sodipodi:role="line"
             id="tspan3615"
             x="263.79483"
             y="15.634033">−<tspan
   style="font-style:italic;-inkscape-font-specification:'Times New Roman, Italic'"
   id="tspan3617"
   dy="0 0 0 0 0 0 4">U(t)/U<tspan
   style="font-size:16px"
   id="tspan3619"
   dy="6.4000001">0</tspan></tspan></tspan></text>
<text
           xml:space="preserve"
           style="font-size:22.39999962px;font-style:normal;font-variant:normal;font-weight:normal;font-stretch:normal;line-height:125%;letter-spacing:0px;word-spacing:0px;fill:#000000;fill-opacity:1;stroke:none;font-family:Times New Roman;-inkscape-font-specification:Times New Roman"
           x="271.63403"
           y="-7.7948241"
           id="text3623"
           sodipodi:linespacing="125%"
           transform="scale(1,-1)"><tspan
             sodipodi:role="line"
             id="tspan3625"
             x="271.63403"
             y="-7.7948241"><tspan
   style="font-style:italic"
   id="tspan3627">t,</tspan> нс</tspan></text>
</g><path
         d="m 567.5,567.5 4535,0 0,4535 -4535,0 0,-4535 z"
         style="fill:none;stroke:#000000;stroke-width:17.5;stroke-linecap:butt;stroke-linejoin:miter;stroke-miterlimit:10;stroke-opacity:1;stroke-dasharray:none"
         id="path48"
         inkscape:connector-curvature="0" /><g
         id="g50"><g
           id="g52"
           clip-path="url(#clipPath54)"><path
             d="m 572.5,567.5 442.5,0"
             style="fill:none;stroke:#000000;stroke-width:15;stroke-linecap:butt;stroke-linejoin:miter;stroke-miterlimit:10;stroke-opacity:1;stroke-dasharray:none"
             id="path58"
             inkscape:connector-curvature="0" /><path
             d="m 1015,567.5 192.5,0 2.5,-5 2.5,-2.5 2.5,7.5 0,25 2.5,40 0,50 2.5,85 5,147.5 0,32.5 5,227.5 5,97.5 5,220 2.5,82.5 7.5,210 2.5,70 7.5,200 0,57.5 7.5,192.5 2.5,47.5 7.5,182.5 2.5,37.5 7.5,172.5 0,30 10,185 10,172.5 7.5,157.5 10,145 7.5,132.5 10,120 10,112.5 7.5,100 10,92.5 10,82.5 7.5,77.5 10,67.5 7.5,62.5 10,55 10,50 7.5,42.5 10,40 10,35 7.5,27.5"
             style="fill:none;stroke:#000000;stroke-width:15;stroke-linecap:butt;stroke-linejoin:miter;stroke-miterlimit:10;stroke-opacity:1;stroke-dasharray:none"
             id="path60"
             inkscape:connector-curvature="0" /><path
             d="m 1460,4532.5 7.5,20 2.5,7.5 7.5,15 0,7.5 7.5,12.5 2.5,5 7.5,12.5 2.5,2.5 7.5,10 0,2.5 10,7.5 0,2.5 10,5 7.5,5 10,2.5 10,0 7.5,-2.5 10,-5 7.5,-5 10,-5 10,-10 7.5,-10 10,-10 10,-12.5 7.5,-12.5 10,-12.5 7.5,-15 10,-17.5 10,-15 7.5,-17.5 10,-17.5 10,-17.5 7.5,-17.5 10,-20 7.5,-20 10,-20 10,-20 7.5,-20 10,-20 10,-22.5 7.5,-20 10,-20 10,-22.5 7.5,-22.5 10,-20 7.5,-22.5 10,-22.5 10,-22.5 7.5,-22.5 10,-20 10,-22.5 7.5,-22.5 10,-22.5 7.5,-22.5 10,-22.5"
             style="fill:none;stroke:#000000;stroke-width:15;stroke-linecap:butt;stroke-linejoin:miter;stroke-miterlimit:10;stroke-opacity:1;stroke-dasharray:none"
             id="path62"
             inkscape:connector-curvature="0" /><path
             d="m 1905,3977.5 10,-20 7.5,-22.5 10,-22.5 10,-22.5 7.5,-22.5 10,-20 7.5,-22.5 10,-22.5 10,-20 7.5,-22.5 10,-20 10,-22.5 7.5,-22.5 10,-20 7.5,-20 10,-22.5 10,-20 7.5,-20 10,-22.5 10,-20 7.5,-20 10,-20 10,-20 7.5,-20 10,-20 7.5,-20 10,-20 10,-20 7.5,-20 10,-17.5 10,-20 7.5,-20 10,-17.5 7.5,-20 10,-17.5 10,-20 7.5,-17.5 10,-17.5 10,-20 7.5,-17.5 10,-17.5 7.5,-17.5 10,-17.5 10,-20 7.5,-17.5 10,-15 10,-17.5 7.5,-17.5 10,-17.5"
             style="fill:none;stroke:#000000;stroke-width:15;stroke-linecap:butt;stroke-linejoin:miter;stroke-miterlimit:10;stroke-opacity:1;stroke-dasharray:none"
             id="path64"
             inkscape:connector-curvature="0" /><path
             d="m 2350,3007.5 7.5,-17.5 10,-17.5 10,-15 7.5,-17.5 10,-17.5 10,-15 7.5,-17.5 10,-15 10,-17.5 7.5,-15 10,-15 7.5,-17.5 10,-15 10,-15 7.5,-15 10,-15 10,-15 7.5,-15 10,-15 7.5,-15 10,-15 10,-15 7.5,-15 10,-15 10,-15 7.5,-12.5 10,-15 7.5,-15 10,-12.5 10,-15 7.5,-12.5 10,-15 10,-12.5 7.5,-15 10,-12.5 7.5,-12.5 10,-15 10,-12.5 7.5,-12.5 10,-12.5 10,-12.5 7.5,-15 10,-12.5 10,-12.5 7.5,-12.5 10,-12.5 7.5,-12.5 10,-10 10,-12.5"
             style="fill:none;stroke:#000000;stroke-width:15;stroke-linecap:butt;stroke-linejoin:miter;stroke-miterlimit:10;stroke-opacity:1;stroke-dasharray:none"
             id="path66"
             inkscape:connector-curvature="0" /><path
             d="m 2795,2300 7.5,-12.5 10,-12.5 10,-12.5 7.5,-10 10,-12.5 7.5,-12.5 10,-10 10,-12.5 7.5,-12.5 10,-10 10,-12.5 7.5,-10 10,-12.5 7.5,-10 10,-10 10,-12.5 7.5,-10 10,-10 10,-12.5 7.5,-10 10,-10 10,-10 7.5,-10 10,-10 7.5,-12.5 10,-10 10,-10 7.5,-10 10,-10 10,-10 7.5,-7.5 10,-10 7.5,-10 10,-10 10,-10 7.5,-10 10,-7.5 10,-10 7.5,-10 10,-10 7.5,-7.5 10,-10 10,-7.5 7.5,-10 10,-10 10,-7.5 7.5,-10 10,-7.5 7.5,-7.5"
             style="fill:none;stroke:#000000;stroke-width:15;stroke-linecap:butt;stroke-linejoin:miter;stroke-miterlimit:10;stroke-opacity:1;stroke-dasharray:none"
             id="path68"
             inkscape:connector-curvature="0" /><path
             d="m 3237.5,1797.5 10,-10 10,-7.5 7.5,-10 10,-7.5 10,-7.5 7.5,-10 10,-7.5 10,-7.5 7.5,-10 10,-7.5 7.5,-7.5 10,-7.5 10,-7.5 7.5,-7.5 10,-7.5 10,-10 7.5,-7.5 10,-7.5 7.5,-7.5 10,-7.5 10,-7.5 7.5,-7.5 10,-7.5 10,-7.5 7.5,-5 10,-7.5 7.5,-7.5 10,-7.5 10,-7.5 7.5,-7.5 10,-5 10,-7.5 7.5,-7.5 10,-7.5 7.5,-5 10,-7.5 10,-7.5 7.5,-5 10,-7.5 10,-7.5 7.5,-5 10,-7.5 10,-5 7.5,-7.5 10,-5 7.5,-7.5 10,-5 10,-7.5 7.5,-5"
             style="fill:none;stroke:#000000;stroke-width:15;stroke-linecap:butt;stroke-linejoin:miter;stroke-miterlimit:10;stroke-opacity:1;stroke-dasharray:none"
             id="path70"
             inkscape:connector-curvature="0" /><path
             d="m 3682.5,1440 10,-7.5 10,-5 7.5,-7.5 10,-5 7.5,-5 10,-7.5 10,-5 7.5,-5 10,-7.5 10,-5 7.5,-5 10,-5 7.5,-7.5 10,-5 10,-5 7.5,-5 10,-5 10,-7.5 7.5,-5 10,-5 7.5,-5 10,-5 10,-5 7.5,-5 10,-5 10,-5 7.5,-5 10,-5 10,-5 7.5,-5 10,-5 7.5,-5 10,-5 10,-5 7.5,-5 10,-5 10,-5 7.5,-5 10,-5 7.5,-2.5 10,-5 10,-5 7.5,-5 10,-5 10,-5 7.5,-2.5 10,-5 7.5,-5 10,-5"
             style="fill:none;stroke:#000000;stroke-width:15;stroke-linecap:butt;stroke-linejoin:miter;stroke-miterlimit:10;stroke-opacity:1;stroke-dasharray:none"
             id="path72"
             inkscape:connector-curvature="0" /><path
             d="m 4127.5,1185 10,-2.5 7.5,-5 10,-5 10,-2.5 7.5,-5 10,-5 10,-2.5 7.5,-5 10,-5 7.5,-2.5 10,-5 10,-5 7.5,-2.5 10,-5 10,-2.5 7.5,-5 10,-2.5 7.5,-5 10,-2.5 10,-5 7.5,-2.5 10,-5 10,-2.5 7.5,-5 10,-2.5 7.5,-5 10,-2.5 10,-5 7.5,-2.5 10,-2.5 10,-5 7.5,-2.5 10,-5 7.5,-2.5 10,-2.5 10,-5 7.5,-2.5 10,-2.5 10,-5 7.5,-2.5 10,-2.5 10,-5 7.5,-2.5 10,-2.5 7.5,-2.5 10,-5 10,-2.5 7.5,-2.5 10,-2.5"
             style="fill:none;stroke:#000000;stroke-width:15;stroke-linecap:butt;stroke-linejoin:miter;stroke-miterlimit:10;stroke-opacity:1;stroke-dasharray:none"
             id="path74"
             inkscape:connector-curvature="0" /><path
             d="m 4572.5,1007.5 10,-5 7.5,-2.5 10,-2.5 7.5,-2.5 10,-5 10,-2.5 7.5,-2.5 10,-2.5 10,-2.5 7.5,-2.5 10,-2.5 7.5,-5 10,-2.5 10,-2.5 7.5,-2.5 10,-2.5 10,-2.5 7.5,-2.5 10,-2.5 7.5,-2.5 10,-2.5 10,-5 7.5,-2.5 10,-2.5 10,-2.5 7.5,-2.5 10,-2.5 10,-2.5 7.5,-2.5 10,-2.5 7.5,-2.5 10,-2.5 10,-2.5 7.5,-2.5 10,-2.5 10,-2.5 7.5,-2.5 10,-2.5 7.5,0 10,-2.5 10,-2.5 7.5,-2.5 10,-2.5 10,-2.5 7.5,-2.5 10,-2.5 7.5,-2.5 10,-2.5 10,0"
             style="fill:none;stroke:#000000;stroke-width:15;stroke-linecap:butt;stroke-linejoin:miter;stroke-miterlimit:10;stroke-opacity:1;stroke-dasharray:none"
             id="path76"
             inkscape:connector-curvature="0" /><path
             d="m 5017.5,880 7.5,-2.5 10,-2.5 10,-2.5 7.5,-2.5 10,-2.5 7.5,-2.5 10,0 10,-2.5 7.5,-2.5"
             style="fill:none;stroke:#000000;stroke-width:15;stroke-linecap:butt;stroke-linejoin:miter;stroke-miterlimit:10;stroke-opacity:1;stroke-dasharray:none"
             id="path78"
             inkscape:connector-curvature="0" /></g></g><path
         d="m 567.5,567.5 0,4535"
         style="fill:none;stroke:#000000;stroke-width:2.5;stroke-linecap:butt;stroke-linejoin:miter;stroke-miterlimit:10;stroke-opacity:1;stroke-dasharray:none"
         id="path80"
         inkscape:connector-curvature="0" /><path
         d="m 652.5,567.5 -85,0"
         style="fill:none;stroke:#000000;stroke-width:2.5;stroke-linecap:butt;stroke-linejoin:miter;stroke-miterlimit:10;stroke-opacity:1;stroke-dasharray:none"
         id="path82"
         inkscape:connector-curvature="0" /><path
         d="m 610,685 -42.5,0"
         style="fill:none;stroke:#000000;stroke-width:2.5;stroke-linecap:butt;stroke-linejoin:miter;stroke-miterlimit:10;stroke-opacity:1;stroke-dasharray:none"
         id="path84"
         inkscape:connector-curvature="0" /><path
         d="m 610,802.5 -42.5,0"
         style="fill:none;stroke:#000000;stroke-width:2.5;stroke-linecap:butt;stroke-linejoin:miter;stroke-miterlimit:10;stroke-opacity:1;stroke-dasharray:none"
         id="path86"
         inkscape:connector-curvature="0" /><path
         d="m 610,917.5 -42.5,0"
         style="fill:none;stroke:#000000;stroke-width:2.5;stroke-linecap:butt;stroke-linejoin:miter;stroke-miterlimit:10;stroke-opacity:1;stroke-dasharray:none"
         id="path88"
         inkscape:connector-curvature="0" /><path
         d="m 610,1035 -42.5,0"
         style="fill:none;stroke:#000000;stroke-width:2.5;stroke-linecap:butt;stroke-linejoin:miter;stroke-miterlimit:10;stroke-opacity:1;stroke-dasharray:none"
         id="path90"
         inkscape:connector-curvature="0" /><path
         d="m 652.5,1152.5 -85,0"
         style="fill:none;stroke:#000000;stroke-width:2.5;stroke-linecap:butt;stroke-linejoin:miter;stroke-miterlimit:10;stroke-opacity:1;stroke-dasharray:none"
         id="path92"
         inkscape:connector-curvature="0" /><path
         d="m 610,1270 -42.5,0"
         style="fill:none;stroke:#000000;stroke-width:2.5;stroke-linecap:butt;stroke-linejoin:miter;stroke-miterlimit:10;stroke-opacity:1;stroke-dasharray:none"
         id="path94"
         inkscape:connector-curvature="0" /><path
         d="m 610,1387.5 -42.5,0"
         style="fill:none;stroke:#000000;stroke-width:2.5;stroke-linecap:butt;stroke-linejoin:miter;stroke-miterlimit:10;stroke-opacity:1;stroke-dasharray:none"
         id="path96"
         inkscape:connector-curvature="0" /><path
         d="m 610,1505 -42.5,0"
         style="fill:none;stroke:#000000;stroke-width:2.5;stroke-linecap:butt;stroke-linejoin:miter;stroke-miterlimit:10;stroke-opacity:1;stroke-dasharray:none"
         id="path98"
         inkscape:connector-curvature="0" /><path
         d="m 610,1622.5 -42.5,0"
         style="fill:none;stroke:#000000;stroke-width:2.5;stroke-linecap:butt;stroke-linejoin:miter;stroke-miterlimit:10;stroke-opacity:1;stroke-dasharray:none"
         id="path100"
         inkscape:connector-curvature="0" /><path
         d="m 652.5,1740 -85,0"
         style="fill:none;stroke:#000000;stroke-width:2.5;stroke-linecap:butt;stroke-linejoin:miter;stroke-miterlimit:10;stroke-opacity:1;stroke-dasharray:none"
         id="path102"
         inkscape:connector-curvature="0" /><path
         d="m 610,1855 -42.5,0"
         style="fill:none;stroke:#000000;stroke-width:2.5;stroke-linecap:butt;stroke-linejoin:miter;stroke-miterlimit:10;stroke-opacity:1;stroke-dasharray:none"
         id="path104"
         inkscape:connector-curvature="0" /><path
         d="m 610,1972.5 -42.5,0"
         style="fill:none;stroke:#000000;stroke-width:2.5;stroke-linecap:butt;stroke-linejoin:miter;stroke-miterlimit:10;stroke-opacity:1;stroke-dasharray:none"
         id="path106"
         inkscape:connector-curvature="0" /><path
         d="m 610,2090 -42.5,0"
         style="fill:none;stroke:#000000;stroke-width:2.5;stroke-linecap:butt;stroke-linejoin:miter;stroke-miterlimit:10;stroke-opacity:1;stroke-dasharray:none"
         id="path108"
         inkscape:connector-curvature="0" /><path
         d="m 610,2207.5 -42.5,0"
         style="fill:none;stroke:#000000;stroke-width:2.5;stroke-linecap:butt;stroke-linejoin:miter;stroke-miterlimit:10;stroke-opacity:1;stroke-dasharray:none"
         id="path110"
         inkscape:connector-curvature="0" /><path
         d="m 652.5,2325 -85,0"
         style="fill:none;stroke:#000000;stroke-width:2.5;stroke-linecap:butt;stroke-linejoin:miter;stroke-miterlimit:10;stroke-opacity:1;stroke-dasharray:none"
         id="path112"
         inkscape:connector-curvature="0" /><path
         d="m 610,2442.5 -42.5,0"
         style="fill:none;stroke:#000000;stroke-width:2.5;stroke-linecap:butt;stroke-linejoin:miter;stroke-miterlimit:10;stroke-opacity:1;stroke-dasharray:none"
         id="path114"
         inkscape:connector-curvature="0" /><path
         d="m 610,2560 -42.5,0"
         style="fill:none;stroke:#000000;stroke-width:2.5;stroke-linecap:butt;stroke-linejoin:miter;stroke-miterlimit:10;stroke-opacity:1;stroke-dasharray:none"
         id="path116"
         inkscape:connector-curvature="0" /><path
         d="m 610,2675 -42.5,0"
         style="fill:none;stroke:#000000;stroke-width:2.5;stroke-linecap:butt;stroke-linejoin:miter;stroke-miterlimit:10;stroke-opacity:1;stroke-dasharray:none"
         id="path118"
         inkscape:connector-curvature="0" /><path
         d="m 610,2792.5 -42.5,0"
         style="fill:none;stroke:#000000;stroke-width:2.5;stroke-linecap:butt;stroke-linejoin:miter;stroke-miterlimit:10;stroke-opacity:1;stroke-dasharray:none"
         id="path120"
         inkscape:connector-curvature="0" /><path
         d="m 652.5,2910 -85,0"
         style="fill:none;stroke:#000000;stroke-width:2.5;stroke-linecap:butt;stroke-linejoin:miter;stroke-miterlimit:10;stroke-opacity:1;stroke-dasharray:none"
         id="path122"
         inkscape:connector-curvature="0" /><path
         d="m 610,3027.5 -42.5,0"
         style="fill:none;stroke:#000000;stroke-width:2.5;stroke-linecap:butt;stroke-linejoin:miter;stroke-miterlimit:10;stroke-opacity:1;stroke-dasharray:none"
         id="path124"
         inkscape:connector-curvature="0" /><path
         d="m 610,3145 -42.5,0"
         style="fill:none;stroke:#000000;stroke-width:2.5;stroke-linecap:butt;stroke-linejoin:miter;stroke-miterlimit:10;stroke-opacity:1;stroke-dasharray:none"
         id="path126"
         inkscape:connector-curvature="0" /><path
         d="m 610,3262.5 -42.5,0"
         style="fill:none;stroke:#000000;stroke-width:2.5;stroke-linecap:butt;stroke-linejoin:miter;stroke-miterlimit:10;stroke-opacity:1;stroke-dasharray:none"
         id="path128"
         inkscape:connector-curvature="0" /><path
         d="m 610,3380 -42.5,0"
         style="fill:none;stroke:#000000;stroke-width:2.5;stroke-linecap:butt;stroke-linejoin:miter;stroke-miterlimit:10;stroke-opacity:1;stroke-dasharray:none"
         id="path130"
         inkscape:connector-curvature="0" /><path
         d="m 652.5,3497.5 -85,0"
         style="fill:none;stroke:#000000;stroke-width:2.5;stroke-linecap:butt;stroke-linejoin:miter;stroke-miterlimit:10;stroke-opacity:1;stroke-dasharray:none"
         id="path132"
         inkscape:connector-curvature="0" /><path
         d="m 610,3612.5 -42.5,0"
         style="fill:none;stroke:#000000;stroke-width:2.5;stroke-linecap:butt;stroke-linejoin:miter;stroke-miterlimit:10;stroke-opacity:1;stroke-dasharray:none"
         id="path134"
         inkscape:connector-curvature="0" /><path
         d="m 610,3730 -42.5,0"
         style="fill:none;stroke:#000000;stroke-width:2.5;stroke-linecap:butt;stroke-linejoin:miter;stroke-miterlimit:10;stroke-opacity:1;stroke-dasharray:none"
         id="path136"
         inkscape:connector-curvature="0" /><path
         d="m 610,3847.5 -42.5,0"
         style="fill:none;stroke:#000000;stroke-width:2.5;stroke-linecap:butt;stroke-linejoin:miter;stroke-miterlimit:10;stroke-opacity:1;stroke-dasharray:none"
         id="path138"
         inkscape:connector-curvature="0" /><path
         d="m 610,3965 -42.5,0"
         style="fill:none;stroke:#000000;stroke-width:2.5;stroke-linecap:butt;stroke-linejoin:miter;stroke-miterlimit:10;stroke-opacity:1;stroke-dasharray:none"
         id="path140"
         inkscape:connector-curvature="0" /><path
         d="m 652.5,4082.5 -85,0"
         style="fill:none;stroke:#000000;stroke-width:2.5;stroke-linecap:butt;stroke-linejoin:miter;stroke-miterlimit:10;stroke-opacity:1;stroke-dasharray:none"
         id="path142"
         inkscape:connector-curvature="0" /><path
         d="m 610,4200 -42.5,0"
         style="fill:none;stroke:#000000;stroke-width:2.5;stroke-linecap:butt;stroke-linejoin:miter;stroke-miterlimit:10;stroke-opacity:1;stroke-dasharray:none"
         id="path144"
         inkscape:connector-curvature="0" /><path
         d="m 610,4317.5 -42.5,0"
         style="fill:none;stroke:#000000;stroke-width:2.5;stroke-linecap:butt;stroke-linejoin:miter;stroke-miterlimit:10;stroke-opacity:1;stroke-dasharray:none"
         id="path146"
         inkscape:connector-curvature="0" /><path
         d="m 610,4435 -42.5,0"
         style="fill:none;stroke:#000000;stroke-width:2.5;stroke-linecap:butt;stroke-linejoin:miter;stroke-miterlimit:10;stroke-opacity:1;stroke-dasharray:none"
         id="path148"
         inkscape:connector-curvature="0" /><path
         d="m 610,4550 -42.5,0"
         style="fill:none;stroke:#000000;stroke-width:2.5;stroke-linecap:butt;stroke-linejoin:miter;stroke-miterlimit:10;stroke-opacity:1;stroke-dasharray:none"
         id="path150"
         inkscape:connector-curvature="0" /><path
         d="m 652.5,4667.5 -85,0"
         style="fill:none;stroke:#000000;stroke-width:2.5;stroke-linecap:butt;stroke-linejoin:miter;stroke-miterlimit:10;stroke-opacity:1;stroke-dasharray:none"
         id="path152"
         inkscape:connector-curvature="0" /><path
         d="m 652.5,4667.5 -85,0"
         style="fill:none;stroke:#000000;stroke-width:2.5;stroke-linecap:butt;stroke-linejoin:miter;stroke-miterlimit:10;stroke-opacity:1;stroke-dasharray:none"
         id="path154"
         inkscape:connector-curvature="0" /><path
         d="m 610,4785 -42.5,0"
         style="fill:none;stroke:#000000;stroke-width:2.5;stroke-linecap:butt;stroke-linejoin:miter;stroke-miterlimit:10;stroke-opacity:1;stroke-dasharray:none"
         id="path156"
         inkscape:connector-curvature="0" /><path
         d="m 610,4902.5 -42.5,0"
         style="fill:none;stroke:#000000;stroke-width:2.5;stroke-linecap:butt;stroke-linejoin:miter;stroke-miterlimit:10;stroke-opacity:1;stroke-dasharray:none"
         id="path158"
         inkscape:connector-curvature="0" /><path
         d="m 610,5020 -42.5,0"
         style="fill:none;stroke:#000000;stroke-width:2.5;stroke-linecap:butt;stroke-linejoin:miter;stroke-miterlimit:10;stroke-opacity:1;stroke-dasharray:none"
         id="path160"
         inkscape:connector-curvature="0" /><g
         id="g162"
         transform="scale(10,10)"><text
           transform="matrix(1,0,0,-1,41.375,50.25)"
           id="text164"><tspan
             style="font-size:19.25px;font-style:italic;font-variant:normal;writing-mode:lr-tb;fill:#000000;fill-opacity:1;fill-rule:nonzero;stroke:none;font-family:Times New Roman;-inkscape-font-specification:Times-Italic"
             x="0"
             y="0"
             id="tspan166">0</tspan><tspan
             style="font-size:19.25px;font-style:italic;font-variant:normal;writing-mode:lr-tb;fill:#000000;fill-opacity:1;fill-rule:nonzero;stroke:none;font-family:Times New Roman;-inkscape-font-specification:Times-Italic"
             x="-14.4375 -4.8125 0"
             y="-58.75"
             sodipodi:role="line"
             id="tspan168">0.1</tspan><tspan
             style="font-size:19.25px;font-style:italic;font-variant:normal;writing-mode:lr-tb;fill:#000000;fill-opacity:1;fill-rule:nonzero;stroke:none;font-family:Times New Roman;-inkscape-font-specification:Times-Italic"
             x="-14.4375 -4.8125 0"
             y="-117.25"
             sodipodi:role="line"
             id="tspan170">0.2</tspan><tspan
             style="font-size:19.25px;font-style:italic;font-variant:normal;writing-mode:lr-tb;fill:#000000;fill-opacity:1;fill-rule:nonzero;stroke:none;font-family:Times New Roman;-inkscape-font-specification:Times-Italic"
             x="-14.4375 -4.8125 0"
             y="-175.75"
             sodipodi:role="line"
             id="tspan172">0.3</tspan><tspan
             style="font-size:19.25px;font-style:italic;font-variant:normal;writing-mode:lr-tb;fill:#000000;fill-opacity:1;fill-rule:nonzero;stroke:none;font-family:Times New Roman;-inkscape-font-specification:Times-Italic"
             x="-14.4375 -4.8125 0"
             y="-234.5"
             sodipodi:role="line"
             id="tspan174">0.4</tspan><tspan
             style="font-size:19.25px;font-style:italic;font-variant:normal;writing-mode:lr-tb;fill:#000000;fill-opacity:1;fill-rule:nonzero;stroke:none;font-family:Times New Roman;-inkscape-font-specification:Times-Italic"
             x="-14.4375 -4.8125 0"
             y="-293"
             sodipodi:role="line"
             id="tspan176">0.5</tspan><tspan
             style="font-size:19.25px;font-style:italic;font-variant:normal;writing-mode:lr-tb;fill:#000000;fill-opacity:1;fill-rule:nonzero;stroke:none;font-family:Times New Roman;-inkscape-font-specification:Times-Italic"
             x="-14.4375 -4.8125 0"
             y="-351.5"
             sodipodi:role="line"
             id="tspan178">0.6</tspan><tspan
             style="font-size:19.25px;font-style:italic;font-variant:normal;writing-mode:lr-tb;fill:#000000;fill-opacity:1;fill-rule:nonzero;stroke:none;font-family:Times New Roman;-inkscape-font-specification:Times-Italic"
             x="-14.4375 -4.8125 0"
             y="-410.25"
             sodipodi:role="line"
             id="tspan180">0.7</tspan></text>
</g><path
         d="m 567.5,567.5 4535,0"
         style="fill:none;stroke:#000000;stroke-width:2.5;stroke-linecap:butt;stroke-linejoin:miter;stroke-miterlimit:10;stroke-opacity:1;stroke-dasharray:none"
         id="path182"
         inkscape:connector-curvature="0" /><path
         d="m 567.5,652.5 0,-85"
         style="fill:none;stroke:#000000;stroke-width:2.5;stroke-linecap:butt;stroke-linejoin:miter;stroke-miterlimit:10;stroke-opacity:1;stroke-dasharray:none"
         id="path184"
         inkscape:connector-curvature="0" /><path
         d="m 697.5,610 0,-42.5"
         style="fill:none;stroke:#000000;stroke-width:2.5;stroke-linecap:butt;stroke-linejoin:miter;stroke-miterlimit:10;stroke-opacity:1;stroke-dasharray:none"
         id="path186"
         inkscape:connector-curvature="0" /><path
         d="m 825,610 0,-42.5"
         style="fill:none;stroke:#000000;stroke-width:2.5;stroke-linecap:butt;stroke-linejoin:miter;stroke-miterlimit:10;stroke-opacity:1;stroke-dasharray:none"
         id="path188"
         inkscape:connector-curvature="0" /><path
         d="m 955,610 0,-42.5"
         style="fill:none;stroke:#000000;stroke-width:2.5;stroke-linecap:butt;stroke-linejoin:miter;stroke-miterlimit:10;stroke-opacity:1;stroke-dasharray:none"
         id="path190"
         inkscape:connector-curvature="0" /><path
         d="m 1085,610 0,-42.5"
         style="fill:none;stroke:#000000;stroke-width:2.5;stroke-linecap:butt;stroke-linejoin:miter;stroke-miterlimit:10;stroke-opacity:1;stroke-dasharray:none"
         id="path192"
         inkscape:connector-curvature="0" /><path
         d="m 1215,652.5 0,-85"
         style="fill:none;stroke:#000000;stroke-width:2.5;stroke-linecap:butt;stroke-linejoin:miter;stroke-miterlimit:10;stroke-opacity:1;stroke-dasharray:none"
         id="path194"
         inkscape:connector-curvature="0" /><path
         d="m 1345,610 0,-42.5"
         style="fill:none;stroke:#000000;stroke-width:2.5;stroke-linecap:butt;stroke-linejoin:miter;stroke-miterlimit:10;stroke-opacity:1;stroke-dasharray:none"
         id="path196"
         inkscape:connector-curvature="0" /><path
         d="m 1475,610 0,-42.5"
         style="fill:none;stroke:#000000;stroke-width:2.5;stroke-linecap:butt;stroke-linejoin:miter;stroke-miterlimit:10;stroke-opacity:1;stroke-dasharray:none"
         id="path198"
         inkscape:connector-curvature="0" /><path
         d="m 1605,610 0,-42.5"
         style="fill:none;stroke:#000000;stroke-width:2.5;stroke-linecap:butt;stroke-linejoin:miter;stroke-miterlimit:10;stroke-opacity:1;stroke-dasharray:none"
         id="path200"
         inkscape:connector-curvature="0" /><path
         d="m 1732.5,610 0,-42.5"
         style="fill:none;stroke:#000000;stroke-width:2.5;stroke-linecap:butt;stroke-linejoin:miter;stroke-miterlimit:10;stroke-opacity:1;stroke-dasharray:none"
         id="path202"
         inkscape:connector-curvature="0" /><path
         d="m 1862.5,652.5 0,-85"
         style="fill:none;stroke:#000000;stroke-width:2.5;stroke-linecap:butt;stroke-linejoin:miter;stroke-miterlimit:10;stroke-opacity:1;stroke-dasharray:none"
         id="path204"
         inkscape:connector-curvature="0" /><path
         d="m 1992.5,610 0,-42.5"
         style="fill:none;stroke:#000000;stroke-width:2.5;stroke-linecap:butt;stroke-linejoin:miter;stroke-miterlimit:10;stroke-opacity:1;stroke-dasharray:none"
         id="path206"
         inkscape:connector-curvature="0" /><path
         d="m 2122.5,610 0,-42.5"
         style="fill:none;stroke:#000000;stroke-width:2.5;stroke-linecap:butt;stroke-linejoin:miter;stroke-miterlimit:10;stroke-opacity:1;stroke-dasharray:none"
         id="path208"
         inkscape:connector-curvature="0" /><path
         d="m 2252.5,610 0,-42.5"
         style="fill:none;stroke:#000000;stroke-width:2.5;stroke-linecap:butt;stroke-linejoin:miter;stroke-miterlimit:10;stroke-opacity:1;stroke-dasharray:none"
         id="path210"
         inkscape:connector-curvature="0" /><path
         d="m 2382.5,610 0,-42.5"
         style="fill:none;stroke:#000000;stroke-width:2.5;stroke-linecap:butt;stroke-linejoin:miter;stroke-miterlimit:10;stroke-opacity:1;stroke-dasharray:none"
         id="path212"
         inkscape:connector-curvature="0" /><path
         d="m 2510,652.5 0,-85"
         style="fill:none;stroke:#000000;stroke-width:2.5;stroke-linecap:butt;stroke-linejoin:miter;stroke-miterlimit:10;stroke-opacity:1;stroke-dasharray:none"
         id="path214"
         inkscape:connector-curvature="0" /><path
         d="m 2640,610 0,-42.5"
         style="fill:none;stroke:#000000;stroke-width:2.5;stroke-linecap:butt;stroke-linejoin:miter;stroke-miterlimit:10;stroke-opacity:1;stroke-dasharray:none"
         id="path216"
         inkscape:connector-curvature="0" /><path
         d="m 2770,610 0,-42.5"
         style="fill:none;stroke:#000000;stroke-width:2.5;stroke-linecap:butt;stroke-linejoin:miter;stroke-miterlimit:10;stroke-opacity:1;stroke-dasharray:none"
         id="path218"
         inkscape:connector-curvature="0" /><path
         d="m 2900,610 0,-42.5"
         style="fill:none;stroke:#000000;stroke-width:2.5;stroke-linecap:butt;stroke-linejoin:miter;stroke-miterlimit:10;stroke-opacity:1;stroke-dasharray:none"
         id="path220"
         inkscape:connector-curvature="0" /><path
         d="m 3030,610 0,-42.5"
         style="fill:none;stroke:#000000;stroke-width:2.5;stroke-linecap:butt;stroke-linejoin:miter;stroke-miterlimit:10;stroke-opacity:1;stroke-dasharray:none"
         id="path222"
         inkscape:connector-curvature="0" /><path
         d="m 3160,652.5 0,-85"
         style="fill:none;stroke:#000000;stroke-width:2.5;stroke-linecap:butt;stroke-linejoin:miter;stroke-miterlimit:10;stroke-opacity:1;stroke-dasharray:none"
         id="path224"
         inkscape:connector-curvature="0" /><path
         d="m 3287.5,610 0,-42.5"
         style="fill:none;stroke:#000000;stroke-width:2.5;stroke-linecap:butt;stroke-linejoin:miter;stroke-miterlimit:10;stroke-opacity:1;stroke-dasharray:none"
         id="path226"
         inkscape:connector-curvature="0" /><path
         d="m 3417.5,610 0,-42.5"
         style="fill:none;stroke:#000000;stroke-width:2.5;stroke-linecap:butt;stroke-linejoin:miter;stroke-miterlimit:10;stroke-opacity:1;stroke-dasharray:none"
         id="path228"
         inkscape:connector-curvature="0" /><path
         d="m 3547.5,610 0,-42.5"
         style="fill:none;stroke:#000000;stroke-width:2.5;stroke-linecap:butt;stroke-linejoin:miter;stroke-miterlimit:10;stroke-opacity:1;stroke-dasharray:none"
         id="path230"
         inkscape:connector-curvature="0" /><path
         d="m 3677.5,610 0,-42.5"
         style="fill:none;stroke:#000000;stroke-width:2.5;stroke-linecap:butt;stroke-linejoin:miter;stroke-miterlimit:10;stroke-opacity:1;stroke-dasharray:none"
         id="path232"
         inkscape:connector-curvature="0" /><path
         d="m 3807.5,652.5 0,-85"
         style="fill:none;stroke:#000000;stroke-width:2.5;stroke-linecap:butt;stroke-linejoin:miter;stroke-miterlimit:10;stroke-opacity:1;stroke-dasharray:none"
         id="path234"
         inkscape:connector-curvature="0" /><path
         d="m 3937.5,610 0,-42.5"
         style="fill:none;stroke:#000000;stroke-width:2.5;stroke-linecap:butt;stroke-linejoin:miter;stroke-miterlimit:10;stroke-opacity:1;stroke-dasharray:none"
         id="path236"
         inkscape:connector-curvature="0" /><path
         d="m 4065,610 0,-42.5"
         style="fill:none;stroke:#000000;stroke-width:2.5;stroke-linecap:butt;stroke-linejoin:miter;stroke-miterlimit:10;stroke-opacity:1;stroke-dasharray:none"
         id="path238"
         inkscape:connector-curvature="0" /><path
         d="m 4195,610 0,-42.5"
         style="fill:none;stroke:#000000;stroke-width:2.5;stroke-linecap:butt;stroke-linejoin:miter;stroke-miterlimit:10;stroke-opacity:1;stroke-dasharray:none"
         id="path240"
         inkscape:connector-curvature="0" /><path
         d="m 4325,610 0,-42.5"
         style="fill:none;stroke:#000000;stroke-width:2.5;stroke-linecap:butt;stroke-linejoin:miter;stroke-miterlimit:10;stroke-opacity:1;stroke-dasharray:none"
         id="path242"
         inkscape:connector-curvature="0" /><path
         d="m 4455,652.5 0,-85"
         style="fill:none;stroke:#000000;stroke-width:2.5;stroke-linecap:butt;stroke-linejoin:miter;stroke-miterlimit:10;stroke-opacity:1;stroke-dasharray:none"
         id="path244"
         inkscape:connector-curvature="0" /><path
         d="m 4585,610 0,-42.5"
         style="fill:none;stroke:#000000;stroke-width:2.5;stroke-linecap:butt;stroke-linejoin:miter;stroke-miterlimit:10;stroke-opacity:1;stroke-dasharray:none"
         id="path246"
         inkscape:connector-curvature="0" /><path
         d="m 4715,610 0,-42.5"
         style="fill:none;stroke:#000000;stroke-width:2.5;stroke-linecap:butt;stroke-linejoin:miter;stroke-miterlimit:10;stroke-opacity:1;stroke-dasharray:none"
         id="path248"
         inkscape:connector-curvature="0" /><path
         d="m 4845,610 0,-42.5"
         style="fill:none;stroke:#000000;stroke-width:2.5;stroke-linecap:butt;stroke-linejoin:miter;stroke-miterlimit:10;stroke-opacity:1;stroke-dasharray:none"
         id="path250"
         inkscape:connector-curvature="0" /><path
         d="m 4972.5,610 0,-42.5"
         style="fill:none;stroke:#000000;stroke-width:2.5;stroke-linecap:butt;stroke-linejoin:miter;stroke-miterlimit:10;stroke-opacity:1;stroke-dasharray:none"
         id="path252"
         inkscape:connector-curvature="0" /><path
         d="m 5102.5,652.5 0,-85"
         style="fill:none;stroke:#000000;stroke-width:2.5;stroke-linecap:butt;stroke-linejoin:miter;stroke-miterlimit:10;stroke-opacity:1;stroke-dasharray:none"
         id="path254"
         inkscape:connector-curvature="0" /><g
         id="g256"
         transform="scale(10,10)"><text
           transform="matrix(1,0,0,-1,48.7324,35.5)"
           id="text258"><tspan
             style="font-size:19.25px;font-style:italic;font-variant:normal;writing-mode:lr-tb;fill:#000000;fill-opacity:1;fill-rule:nonzero;stroke:none;font-family:Times New Roman;-inkscape-font-specification:Times-Italic"
             x="0 6.4102502 67.955002 132.70508 192.64264 202.26764 257.64258 267.26758 322.39264 332.01764 387.14273 396.76773 451.89279 461.51779"
             y="0"
             sodipodi:role="line"
             id="tspan260">-5051015202530</tspan></text>
</g><text
         xml:space="preserve"
         style="font-size:28px;font-style:normal;font-variant:normal;font-weight:normal;font-stretch:normal;line-height:125%;letter-spacing:0px;word-spacing:0px;fill:#000000;fill-opacity:1;stroke:none;font-family:Times New Roman;-inkscape-font-specification:Times New Roman"
         x="333.34808"
         y="526.25"
         id="text3237"
         sodipodi:linespacing="125%"
         transform="matrix(8,0,0,-8,0,8420)"><tspan
           sodipodi:role="line"
           id="tspan3241"
           x="333.34808"
           y="526.25"
           dy="0 0 0 0 -8"><tspan
   style="font-style:italic;-inkscape-font-specification:'Times New Roman, Italic'"
   id="tspan3243"
   dy="0 7 -7 8">R<tspan
   style="font-size:20px"
   id="tspan3245">a</tspan>C<tspan
   style="font-size:20px"
   id="tspan3247">a</tspan></tspan>=10 нс, <tspan
   style="font-style:italic;-inkscape-font-specification:'Times New Roman, Italic'"
   id="tspan3251">τ</tspan>=1 нс</tspan></text>
<path
         style="fill:none;stroke:#000000;stroke-width:1;stroke-miterlimit:4;stroke-opacity:1;stroke-dasharray:6,6;stroke-dashoffset:0"
         d="M 198.02258,97.65625 75.836364,97.368521"
         id="path3776"
         inkscape:connector-curvature="0"
         transform="matrix(8,0,0,-8,-39.190915,5431.25)" /></g></g></svg>