<?xml version="1.0" encoding="UTF-8" standalone="no"?>
<!-- Created with Inkscape (http://www.inkscape.org/) -->

<svg
   xmlns:dc="http://purl.org/dc/elements/1.1/"
   xmlns:cc="http://creativecommons.org/ns#"
   xmlns:rdf="http://www.w3.org/1999/02/22-rdf-syntax-ns#"
   xmlns:svg="http://www.w3.org/2000/svg"
   xmlns="http://www.w3.org/2000/svg"
   xmlns:sodipodi="http://sodipodi.sourceforge.net/DTD/sodipodi-0.dtd"
   xmlns:inkscape="http://www.inkscape.org/namespaces/inkscape"
   id="svg3307"
   version="1.1"
   inkscape:version="0.48.0 r9654"
   width="709.37555"
   height="677.67639"
   xml:space="preserve"
   sodipodi:docname="pulse2.eps"><metadata
     id="metadata3313"><rdf:RDF><cc:Work
         rdf:about=""><dc:format>image/svg+xml</dc:format><dc:type
           rdf:resource="http://purl.org/dc/dcmitype/StillImage" /><dc:title></dc:title></cc:Work></rdf:RDF></metadata><defs
     id="defs3311"><clipPath
       clipPathUnits="userSpaceOnUse"
       id="clipPath3323"><path
         d="m 0,0 0,5670 5670,0 L 5670,0 0,0 z"
         id="path3325"
         inkscape:connector-curvature="0" /></clipPath><clipPath
       clipPathUnits="userSpaceOnUse"
       id="clipPath3359"><path
         d="m 567.5,567.5 0,4535 4535,0 0,-4535 -4535,0 z"
         id="path3361"
         inkscape:connector-curvature="0" /></clipPath></defs><sodipodi:namedview
     pagecolor="#ffffff"
     bordercolor="#666666"
     borderopacity="1"
     objecttolerance="10"
     gridtolerance="10"
     guidetolerance="10"
     inkscape:pageopacity="0"
     inkscape:pageshadow="2"
     inkscape:window-width="1366"
     inkscape:window-height="695"
     id="namedview3309"
     showgrid="false"
     fit-margin-top="40"
     fit-margin-right="40"
     fit-margin-bottom="5"
     fit-margin-left="10"
     inkscape:zoom="0.59097387"
     inkscape:cx="706.19016"
     inkscape:cy="219.76666"
     inkscape:window-x="0"
     inkscape:window-y="25"
     inkscape:window-maximized="1"
     inkscape:current-layer="g3319"
     inkscape:object-paths="true" /><g
     id="g3315"
     inkscape:groupmode="layer"
     inkscape:label="ink_ext_XXXXXX"
     transform="matrix(1.25,0,0,-1.25,19.684909,678.90625)"><g
       id="g3317"
       transform="scale(0.1,0.1)"><g
         id="g3319"><text
           transform="scale(1,-1)"
           sodipodi:linespacing="125%"
           id="text3237"
           y="-4023.1716"
           x="3057.283"
           style="font-size:224px;font-style:normal;font-variant:normal;font-weight:normal;font-stretch:normal;line-height:125%;letter-spacing:0px;word-spacing:0px;fill:#000000;fill-opacity:1;stroke:none;font-family:Times New Roman;-inkscape-font-specification:Times New Roman"
           xml:space="preserve"><tspan
             dy="0 0 0 0 -64"
             y="-4023.1716"
             x="3057.283"
             id="tspan3241"
             sodipodi:role="line"><tspan
   dy="0 56 -56 64"
   id="tspan3243"
   style="font-style:italic;-inkscape-font-specification:'Times New Roman, Italic'">R<tspan
   id="tspan3245"
   style="font-size:160px">a</tspan>C<tspan
   id="tspan3247"
   style="font-size:160px">a</tspan></tspan>=2 нс, <tspan
   id="tspan3251"
   style="font-style:italic;-inkscape-font-specification:'Times New Roman, Italic'">τ</tspan>=1 нс</tspan></text>
<g
           id="g22"
           transform="matrix(10,0,0,10,-78.288356,2.3964843e-5)"><text
             transform="matrix(1,0,0,-1,316,408.25)"
             id="text36"><tspan
               style="font-size:20.75px;font-variant:normal;font-weight:bold;writing-mode:lr-tb;fill:#000000;fill-opacity:1;fill-rule:nonzero;stroke:none;font-family:Times New Roman;-inkscape-font-specification:Times-Bold"
               sodipodi:role="line"
               id="tspan38"
               x="0"
               y="0" /></text>
<text
             transform="matrix(1,0,0,-1,413.7117,408.25)"
             id="text40"><tspan
               style="font-size:20.75px;font-variant:normal;font-weight:normal;writing-mode:lr-tb;fill:#000000;fill-opacity:1;fill-rule:nonzero;stroke:none;font-family:Symbol;-inkscape-font-specification:Symbol"
               x="0"
               y="0"
               id="tspan42" /></text>
<text
             transform="matrix(1,0,0,-1,422.82108,408.25)"
             id="text44"><tspan
               style="font-size:20.75px;font-variant:normal;font-weight:bold;writing-mode:lr-tb;fill:#000000;fill-opacity:1;fill-rule:nonzero;stroke:none;font-family:Times New Roman;-inkscape-font-specification:Times-Bold"
               sodipodi:role="line"
               id="tspan46"
               x="0"
               y="0" /></text>
<text
             xml:space="preserve"
             style="font-size:22.39999962px;font-style:normal;font-variant:normal;font-weight:normal;font-stretch:normal;line-height:125%;letter-spacing:0px;word-spacing:0px;fill:#000000;fill-opacity:1;stroke:none;font-family:Times New Roman;-inkscape-font-specification:Times New Roman"
             x="263.79483"
             y="15.634033"
             id="text3609"
             sodipodi:linespacing="125%"
             transform="matrix(0,1,1,0,0,0)"><tspan
               sodipodi:role="line"
               id="tspan3615"
               x="263.79483"
               y="15.634033">−<tspan
   style="font-style:italic;-inkscape-font-specification:'Times New Roman, Italic'"
   id="tspan3617"
   dy="0 0 0 0 0 0 4">U(t)/U<tspan
   style="font-size:16px"
   id="tspan3619"
   dy="6.4000001">0</tspan></tspan></tspan></text>
<text
             xml:space="preserve"
             style="font-size:22.39999962px;font-style:normal;font-variant:normal;font-weight:normal;font-stretch:normal;line-height:125%;letter-spacing:0px;word-spacing:0px;fill:#000000;fill-opacity:1;stroke:none;font-family:Times New Roman;-inkscape-font-specification:Times New Roman"
             x="271.63403"
             y="-7.7948241"
             id="text3623"
             sodipodi:linespacing="125%"
             transform="scale(1,-1)"><tspan
               sodipodi:role="line"
               id="tspan3625"
               x="271.63403"
               y="-7.7948241"><tspan
   style="font-style:italic"
   id="tspan3627">t,</tspan> нс</tspan></text>
</g><path
           style="fill:none;stroke:#000000;stroke-width:8;stroke-miterlimit:4;stroke-opacity:1;stroke-dasharray:48, 48;stroke-dashoffset:0"
           d="M 1541.6214,4649.7803 572.28604,4650"
           id="path3776"
           inkscape:connector-curvature="0"
           sodipodi:nodetypes="cc" /></g><path
         d="m 567.5,567.5 4535,0 0,4535 -4535,0 0,-4535 z"
         style="fill:none;stroke:#000000;stroke-width:17.5;stroke-linecap:butt;stroke-linejoin:miter;stroke-miterlimit:10;stroke-opacity:1;stroke-dasharray:none"
         id="path3353"
         inkscape:connector-curvature="0" /><g
         id="g3355"><g
           id="g3357"
           clip-path="url(#clipPath3359)"><path
             d="m 572.5,567.5 400,0 2.5,-5 2.5,0 0,2.5 2.5,5 0,12.5 2.5,10 0,30 2.5,25 0,37.5 2.5,40 0,20 2.5,7.5 5,110 2.5,60 7.5,107.5 2.5,57.5 5,105 2.5,55"
             style="fill:none;stroke:#000000;stroke-width:15;stroke-linecap:butt;stroke-linejoin:miter;stroke-miterlimit:10;stroke-opacity:1;stroke-dasharray:none"
             id="path3363"
             inkscape:connector-curvature="0" /><path
             d="m 1015,1247.5 10,152.5 10,150 7.5,145 10,137.5 10,135 7.5,130 10,125 7.5,120 10,115 10,112.5 7.5,107.5 10,105 10,100 7.5,95 10,92.5 7.5,90 10,85 10,80 7.5,80 10,75 10,72.5 7.5,70 10,65 10,62.5 7.5,62.5 10,57.5 7.5,55 10,52.5 10,50 7.5,47.5 10,45 10,42.5 7.5,40 10,40 7.5,35 10,35 10,32.5 7.5,30 10,27.5 10,27.5 7.5,25 10,22.5 7.5,22.5 10,17.5 10,20 7.5,15 10,15 10,15 7.5,12.5"
             style="fill:none;stroke:#000000;stroke-width:15;stroke-linecap:butt;stroke-linejoin:miter;stroke-miterlimit:10;stroke-opacity:1;stroke-dasharray:none"
             id="path3365"
             inkscape:connector-curvature="0" /><path
             d="m 1460,4595 10,10 7.5,10 10,7.5 10,7.5 7.5,7.5 10,5 10,2.5 7.5,2.5 10,2.5 17.5,0 10,-2.5 7.5,-2.5 10,-2.5 10,-5 7.5,-5 10,-5 10,-7.5 7.5,-7.5 10,-7.5 7.5,-10 10,-7.5 10,-10 7.5,-12.5 10,-10 10,-12.5 7.5,-12.5 10,-12.5 7.5,-15 10,-12.5 10,-15 7.5,-15 10,-15 10,-15 7.5,-17.5 10,-15 10,-17.5 7.5,-17.5 10,-17.5 7.5,-17.5 10,-20 10,-17.5 7.5,-20 10,-17.5 10,-20 7.5,-20 10,-20 7.5,-20 10,-20"
             style="fill:none;stroke:#000000;stroke-width:15;stroke-linecap:butt;stroke-linejoin:miter;stroke-miterlimit:10;stroke-opacity:1;stroke-dasharray:none"
             id="path3367"
             inkscape:connector-curvature="0" /><path
             d="m 1905,4152.5 10,-20 7.5,-22.5 10,-20 10,-20 7.5,-22.5 10,-20 7.5,-22.5 10,-22.5 10,-20 7.5,-22.5 10,-22.5 10,-22.5 7.5,-20 10,-22.5 7.5,-22.5 10,-22.5 10,-22.5 7.5,-22.5 10,-22.5 10,-22.5 7.5,-22.5 10,-22.5 10,-22.5 7.5,-22.5 10,-22.5 7.5,-22.5 10,-22.5 10,-22.5 7.5,-22.5 10,-20 10,-22.5 7.5,-22.5 10,-22.5 7.5,-22.5 10,-22.5 10,-22.5 7.5,-22.5 10,-20 10,-22.5 7.5,-22.5 10,-22.5 7.5,-20 10,-22.5 10,-22.5 7.5,-20 10,-22.5 10,-22.5 7.5,-20 10,-22.5"
             style="fill:none;stroke:#000000;stroke-width:15;stroke-linecap:butt;stroke-linejoin:miter;stroke-miterlimit:10;stroke-opacity:1;stroke-dasharray:none"
             id="path3369"
             inkscape:connector-curvature="0" /><path
             d="m 2350,3077.5 7.5,-20 10,-20 10,-22.5 7.5,-20 10,-20 10,-22.5 7.5,-20 10,-20 10,-20 7.5,-20 10,-20 7.5,-20 10,-20 10,-20 7.5,-20 10,-20 10,-20 7.5,-17.5 10,-20 7.5,-20 10,-17.5 10,-20 7.5,-17.5 10,-20 10,-17.5 7.5,-17.5 10,-20 7.5,-17.5 10,-17.5 10,-17.5 7.5,-17.5 10,-20 10,-17.5 7.5,-15 10,-17.5 7.5,-17.5 10,-17.5 10,-17.5 7.5,-17.5 10,-15 10,-17.5 7.5,-15 10,-17.5 10,-15 7.5,-17.5 10,-15 7.5,-15 10,-17.5 10,-15"
             style="fill:none;stroke:#000000;stroke-width:15;stroke-linecap:butt;stroke-linejoin:miter;stroke-miterlimit:10;stroke-opacity:1;stroke-dasharray:none"
             id="path3371"
             inkscape:connector-curvature="0" /><path
             d="m 2795,2175 7.5,-15 10,-15 10,-15 7.5,-15 10,-15 7.5,-15 10,-15 10,-15 7.5,-15 10,-12.5 10,-15 7.5,-15 10,-12.5 7.5,-15 10,-12.5 10,-15 7.5,-12.5 10,-15 10,-12.5 7.5,-12.5 10,-12.5 10,-15 7.5,-12.5 10,-12.5 7.5,-12.5 10,-12.5 10,-12.5 7.5,-12.5 10,-12.5 10,-12.5 7.5,-10 10,-12.5 7.5,-12.5 10,-10 10,-12.5 7.5,-12.5 10,-10 10,-12.5 7.5,-10 10,-12.5 7.5,-10 10,-10 10,-12.5 7.5,-10 10,-10 10,-10 7.5,-10 10,-10 7.5,-10"
             style="fill:none;stroke:#000000;stroke-width:15;stroke-linecap:butt;stroke-linejoin:miter;stroke-miterlimit:10;stroke-opacity:1;stroke-dasharray:none"
             id="path3373"
             inkscape:connector-curvature="0" /><path
             d="m 3237.5,1555 10,-12.5 10,-7.5 7.5,-10 10,-10 10,-10 7.5,-10 10,-10 10,-10 7.5,-7.5 10,-10 7.5,-10 10,-7.5 10,-10 7.5,-7.5 10,-10 10,-7.5 7.5,-10 10,-7.5 7.5,-10 10,-7.5 10,-7.5 7.5,-10 10,-7.5 10,-7.5 7.5,-7.5 10,-10 7.5,-7.5 10,-7.5 10,-7.5 7.5,-7.5 10,-7.5 10,-7.5 7.5,-7.5 10,-7.5 7.5,-7.5 10,-7.5 10,-5 7.5,-7.5 10,-7.5 10,-7.5 7.5,-5 10,-7.5 10,-7.5 7.5,-5 10,-7.5 7.5,-7.5 10,-5 10,-7.5 7.5,-5"
             style="fill:none;stroke:#000000;stroke-width:15;stroke-linecap:butt;stroke-linejoin:miter;stroke-miterlimit:10;stroke-opacity:1;stroke-dasharray:none"
             id="path3375"
             inkscape:connector-curvature="0" /><path
             d="m 3682.5,1160 10,-7.5 10,-5 7.5,-7.5 10,-5 7.5,-7.5 10,-5 10,-5 7.5,-7.5 10,-5 10,-5 7.5,-5 10,-7.5 7.5,-5 10,-5 10,-5 7.5,-5 10,-5 10,-7.5 7.5,-5 10,-5 7.5,-5 10,-5 10,-5 7.5,-5 10,-5 10,-5 7.5,-2.5 10,-5 10,-5 7.5,-5 10,-5 7.5,-5 10,-2.5 10,-5 7.5,-5 10,-5 10,-2.5 7.5,-5 10,-5 7.5,-5 10,-2.5 10,-5 7.5,-2.5 10,-5 10,-5 7.5,-2.5 10,-5 7.5,-2.5 10,-5"
             style="fill:none;stroke:#000000;stroke-width:15;stroke-linecap:butt;stroke-linejoin:miter;stroke-miterlimit:10;stroke-opacity:1;stroke-dasharray:none"
             id="path3377"
             inkscape:connector-curvature="0" /><path
             d="m 4127.5,917.5 10,-2.5 7.5,-5 10,-2.5 10,-5 7.5,-2.5 10,-5 10,-2.5 7.5,-2.5 10,-5 7.5,-2.5 10,-2.5 10,-5 7.5,-2.5 10,-2.5 10,-5 7.5,-2.5 10,-2.5 7.5,-5 10,-2.5 10,-2.5 7.5,-2.5 10,-2.5 10,-5 7.5,-2.5 10,-2.5 7.5,-2.5 10,-2.5 10,-2.5 7.5,-2.5 10,-5 10,-2.5 7.5,-2.5 10,-2.5 7.5,-2.5 10,-2.5 10,-2.5 7.5,-2.5 10,-2.5 10,-2.5 7.5,-2.5 10,-2.5 10,-2.5 7.5,-2.5 10,-2.5 7.5,-2.5 10,-2.5 10,-2.5 7.5,-2.5 10,-2.5"
             style="fill:none;stroke:#000000;stroke-width:15;stroke-linecap:butt;stroke-linejoin:miter;stroke-miterlimit:10;stroke-opacity:1;stroke-dasharray:none"
             id="path3379"
             inkscape:connector-curvature="0" /><path
             d="m 4572.5,772.5 10,0 7.5,-2.5 10,-2.5 7.5,-2.5 10,-2.5 10,-2.5 7.5,-2.5 10,0 10,-2.5 7.5,-2.5 10,-2.5 7.5,-2.5 10,0 10,-2.5 7.5,-2.5 10,-2.5 10,0 7.5,-2.5 10,-2.5 7.5,-2.5 10,0 10,-2.5 7.5,-2.5 10,-2.5 10,0 7.5,-2.5 10,-2.5 10,0 7.5,-2.5 10,-2.5 7.5,0 10,-2.5 10,0 7.5,-2.5 10,-2.5 10,0 7.5,-2.5 10,-2.5 7.5,0 10,-2.5 10,0 7.5,-2.5 10,0 10,-2.5 7.5,-2.5 10,0 7.5,-2.5 10,0 10,-2.5"
             style="fill:none;stroke:#000000;stroke-width:15;stroke-linecap:butt;stroke-linejoin:miter;stroke-miterlimit:10;stroke-opacity:1;stroke-dasharray:none"
             id="path3381"
             inkscape:connector-curvature="0" /><path
             d="m 5017.5,687.5 7.5,0 10,-2.5 10,0 7.5,-2.5 10,0 7.5,-2.5 10,0 10,-2.5 7.5,0"
             style="fill:none;stroke:#000000;stroke-width:15;stroke-linecap:butt;stroke-linejoin:miter;stroke-miterlimit:10;stroke-opacity:1;stroke-dasharray:none"
             id="path3383"
             inkscape:connector-curvature="0" /></g></g><path
         d="m 567.5,567.5 0,4535"
         style="fill:none;stroke:#000000;stroke-width:2.5;stroke-linecap:butt;stroke-linejoin:miter;stroke-miterlimit:10;stroke-opacity:1;stroke-dasharray:none"
         id="path3385"
         inkscape:connector-curvature="0" /><path
         d="m 652.5,567.5 -85,0"
         style="fill:none;stroke:#000000;stroke-width:2.5;stroke-linecap:butt;stroke-linejoin:miter;stroke-miterlimit:10;stroke-opacity:1;stroke-dasharray:none"
         id="path3387"
         inkscape:connector-curvature="0" /><path
         d="m 610,730 -42.5,0"
         style="fill:none;stroke:#000000;stroke-width:2.5;stroke-linecap:butt;stroke-linejoin:miter;stroke-miterlimit:10;stroke-opacity:1;stroke-dasharray:none"
         id="path3389"
         inkscape:connector-curvature="0" /><path
         d="m 610,892.5 -42.5,0"
         style="fill:none;stroke:#000000;stroke-width:2.5;stroke-linecap:butt;stroke-linejoin:miter;stroke-miterlimit:10;stroke-opacity:1;stroke-dasharray:none"
         id="path3391"
         inkscape:connector-curvature="0" /><path
         d="m 610,1057.5 -42.5,0"
         style="fill:none;stroke:#000000;stroke-width:2.5;stroke-linecap:butt;stroke-linejoin:miter;stroke-miterlimit:10;stroke-opacity:1;stroke-dasharray:none"
         id="path3393"
         inkscape:connector-curvature="0" /><path
         d="m 610,1220 -42.5,0"
         style="fill:none;stroke:#000000;stroke-width:2.5;stroke-linecap:butt;stroke-linejoin:miter;stroke-miterlimit:10;stroke-opacity:1;stroke-dasharray:none"
         id="path3395"
         inkscape:connector-curvature="0" /><path
         d="m 652.5,1382.5 -85,0"
         style="fill:none;stroke:#000000;stroke-width:2.5;stroke-linecap:butt;stroke-linejoin:miter;stroke-miterlimit:10;stroke-opacity:1;stroke-dasharray:none"
         id="path3397"
         inkscape:connector-curvature="0" /><path
         d="m 610,1547.5 -42.5,0"
         style="fill:none;stroke:#000000;stroke-width:2.5;stroke-linecap:butt;stroke-linejoin:miter;stroke-miterlimit:10;stroke-opacity:1;stroke-dasharray:none"
         id="path3399"
         inkscape:connector-curvature="0" /><path
         d="m 610,1710 -42.5,0"
         style="fill:none;stroke:#000000;stroke-width:2.5;stroke-linecap:butt;stroke-linejoin:miter;stroke-miterlimit:10;stroke-opacity:1;stroke-dasharray:none"
         id="path3401"
         inkscape:connector-curvature="0" /><path
         d="m 610,1872.5 -42.5,0"
         style="fill:none;stroke:#000000;stroke-width:2.5;stroke-linecap:butt;stroke-linejoin:miter;stroke-miterlimit:10;stroke-opacity:1;stroke-dasharray:none"
         id="path3403"
         inkscape:connector-curvature="0" /><path
         d="m 610,2037.5 -42.5,0"
         style="fill:none;stroke:#000000;stroke-width:2.5;stroke-linecap:butt;stroke-linejoin:miter;stroke-miterlimit:10;stroke-opacity:1;stroke-dasharray:none"
         id="path3405"
         inkscape:connector-curvature="0" /><path
         d="m 652.5,2200 -85,0"
         style="fill:none;stroke:#000000;stroke-width:2.5;stroke-linecap:butt;stroke-linejoin:miter;stroke-miterlimit:10;stroke-opacity:1;stroke-dasharray:none"
         id="path3407"
         inkscape:connector-curvature="0" /><path
         d="m 610,2362.5 -42.5,0"
         style="fill:none;stroke:#000000;stroke-width:2.5;stroke-linecap:butt;stroke-linejoin:miter;stroke-miterlimit:10;stroke-opacity:1;stroke-dasharray:none"
         id="path3409"
         inkscape:connector-curvature="0" /><path
         d="m 610,2527.5 -42.5,0"
         style="fill:none;stroke:#000000;stroke-width:2.5;stroke-linecap:butt;stroke-linejoin:miter;stroke-miterlimit:10;stroke-opacity:1;stroke-dasharray:none"
         id="path3411"
         inkscape:connector-curvature="0" /><path
         d="m 610,2690 -42.5,0"
         style="fill:none;stroke:#000000;stroke-width:2.5;stroke-linecap:butt;stroke-linejoin:miter;stroke-miterlimit:10;stroke-opacity:1;stroke-dasharray:none"
         id="path3413"
         inkscape:connector-curvature="0" /><path
         d="m 610,2852.5 -42.5,0"
         style="fill:none;stroke:#000000;stroke-width:2.5;stroke-linecap:butt;stroke-linejoin:miter;stroke-miterlimit:10;stroke-opacity:1;stroke-dasharray:none"
         id="path3415"
         inkscape:connector-curvature="0" /><path
         d="m 652.5,3017.5 -85,0"
         style="fill:none;stroke:#000000;stroke-width:2.5;stroke-linecap:butt;stroke-linejoin:miter;stroke-miterlimit:10;stroke-opacity:1;stroke-dasharray:none"
         id="path3417"
         inkscape:connector-curvature="0" /><path
         d="m 610,3180 -42.5,0"
         style="fill:none;stroke:#000000;stroke-width:2.5;stroke-linecap:butt;stroke-linejoin:miter;stroke-miterlimit:10;stroke-opacity:1;stroke-dasharray:none"
         id="path3419"
         inkscape:connector-curvature="0" /><path
         d="m 610,3342.5 -42.5,0"
         style="fill:none;stroke:#000000;stroke-width:2.5;stroke-linecap:butt;stroke-linejoin:miter;stroke-miterlimit:10;stroke-opacity:1;stroke-dasharray:none"
         id="path3421"
         inkscape:connector-curvature="0" /><path
         d="m 610,3507.5 -42.5,0"
         style="fill:none;stroke:#000000;stroke-width:2.5;stroke-linecap:butt;stroke-linejoin:miter;stroke-miterlimit:10;stroke-opacity:1;stroke-dasharray:none"
         id="path3423"
         inkscape:connector-curvature="0" /><path
         d="m 610,3670 -42.5,0"
         style="fill:none;stroke:#000000;stroke-width:2.5;stroke-linecap:butt;stroke-linejoin:miter;stroke-miterlimit:10;stroke-opacity:1;stroke-dasharray:none"
         id="path3425"
         inkscape:connector-curvature="0" /><path
         d="m 652.5,3832.5 -85,0"
         style="fill:none;stroke:#000000;stroke-width:2.5;stroke-linecap:butt;stroke-linejoin:miter;stroke-miterlimit:10;stroke-opacity:1;stroke-dasharray:none"
         id="path3427"
         inkscape:connector-curvature="0" /><path
         d="m 610,3995 -42.5,0"
         style="fill:none;stroke:#000000;stroke-width:2.5;stroke-linecap:butt;stroke-linejoin:miter;stroke-miterlimit:10;stroke-opacity:1;stroke-dasharray:none"
         id="path3429"
         inkscape:connector-curvature="0" /><path
         d="m 610,4160 -42.5,0"
         style="fill:none;stroke:#000000;stroke-width:2.5;stroke-linecap:butt;stroke-linejoin:miter;stroke-miterlimit:10;stroke-opacity:1;stroke-dasharray:none"
         id="path3431"
         inkscape:connector-curvature="0" /><path
         d="m 610,4322.5 -42.5,0"
         style="fill:none;stroke:#000000;stroke-width:2.5;stroke-linecap:butt;stroke-linejoin:miter;stroke-miterlimit:10;stroke-opacity:1;stroke-dasharray:none"
         id="path3433"
         inkscape:connector-curvature="0" /><path
         d="m 610,4485 -42.5,0"
         style="fill:none;stroke:#000000;stroke-width:2.5;stroke-linecap:butt;stroke-linejoin:miter;stroke-miterlimit:10;stroke-opacity:1;stroke-dasharray:none"
         id="path3435"
         inkscape:connector-curvature="0" /><path
         d="m 652.5,4650 -85,0"
         style="fill:none;stroke:#000000;stroke-width:2.5;stroke-linecap:butt;stroke-linejoin:miter;stroke-miterlimit:10;stroke-opacity:1;stroke-dasharray:none"
         id="path3437"
         inkscape:connector-curvature="0" /><path
         d="m 652.5,4650 -85,0"
         style="fill:none;stroke:#000000;stroke-width:2.5;stroke-linecap:butt;stroke-linejoin:miter;stroke-miterlimit:10;stroke-opacity:1;stroke-dasharray:none"
         id="path3439"
         inkscape:connector-curvature="0" /><path
         d="m 610,4812.5 -42.5,0"
         style="fill:none;stroke:#000000;stroke-width:2.5;stroke-linecap:butt;stroke-linejoin:miter;stroke-miterlimit:10;stroke-opacity:1;stroke-dasharray:none"
         id="path3441"
         inkscape:connector-curvature="0" /><path
         d="m 610,4975 -42.5,0"
         style="fill:none;stroke:#000000;stroke-width:2.5;stroke-linecap:butt;stroke-linejoin:miter;stroke-miterlimit:10;stroke-opacity:1;stroke-dasharray:none"
         id="path3443"
         inkscape:connector-curvature="0" /><g
         id="g3445"
         transform="scale(10,10)"><text
           transform="matrix(1,0,0,-1,41.375,50.25)"
           id="text3447"><tspan
             style="font-size:19.25px;font-style:italic;font-variant:normal;writing-mode:lr-tb;fill:#000000;fill-opacity:1;fill-rule:nonzero;stroke:none;font-family:Times New Roman;-inkscape-font-specification:Times-Italic"
             x="0"
             y="0"
             id="tspan3449">0</tspan><tspan
             style="font-size:19.25px;font-style:italic;font-variant:normal;writing-mode:lr-tb;fill:#000000;fill-opacity:1;fill-rule:nonzero;stroke:none;font-family:Times New Roman;-inkscape-font-specification:Times-Italic"
             x="-24.0625 -14.4375 -9.625 0"
             y="-81.75"
             sodipodi:role="line"
             id="tspan3451">0.05</tspan><tspan
             style="font-size:19.25px;font-style:italic;font-variant:normal;writing-mode:lr-tb;fill:#000000;fill-opacity:1;fill-rule:nonzero;stroke:none;font-family:Times New Roman;-inkscape-font-specification:Times-Italic"
             x="-14.4375 -4.8125 0"
             y="-163.25"
             sodipodi:role="line"
             id="tspan3453">0.1</tspan><tspan
             style="font-size:19.25px;font-style:italic;font-variant:normal;writing-mode:lr-tb;fill:#000000;fill-opacity:1;fill-rule:nonzero;stroke:none;font-family:Times New Roman;-inkscape-font-specification:Times-Italic"
             x="-24.0625 -14.4375 -9.625 0"
             y="-245"
             sodipodi:role="line"
             id="tspan3455">0.15</tspan><tspan
             style="font-size:19.25px;font-style:italic;font-variant:normal;writing-mode:lr-tb;fill:#000000;fill-opacity:1;fill-rule:nonzero;stroke:none;font-family:Times New Roman;-inkscape-font-specification:Times-Italic"
             x="-14.4375 -4.8125 0"
             y="-326.75"
             sodipodi:role="line"
             id="tspan3457">0.2</tspan><tspan
             style="font-size:19.25px;font-style:italic;font-variant:normal;writing-mode:lr-tb;fill:#000000;fill-opacity:1;fill-rule:nonzero;stroke:none;font-family:Times New Roman;-inkscape-font-specification:Times-Italic"
             x="-24.0625 -14.4375 -9.625 0"
             y="-408.25"
             sodipodi:role="line"
             id="tspan3459">0.25</tspan></text>
</g><path
         d="m 567.5,567.5 4535,0"
         style="fill:none;stroke:#000000;stroke-width:2.5;stroke-linecap:butt;stroke-linejoin:miter;stroke-miterlimit:10;stroke-opacity:1;stroke-dasharray:none"
         id="path3461"
         inkscape:connector-curvature="0" /><path
         d="m 980,652.5 0,-85"
         style="fill:none;stroke:#000000;stroke-width:2.5;stroke-linecap:butt;stroke-linejoin:miter;stroke-miterlimit:10;stroke-opacity:1;stroke-dasharray:none"
         id="path3463"
         inkscape:connector-curvature="0" /><path
         d="m 1185,610 0,-42.5"
         style="fill:none;stroke:#000000;stroke-width:2.5;stroke-linecap:butt;stroke-linejoin:miter;stroke-miterlimit:10;stroke-opacity:1;stroke-dasharray:none"
         id="path3465"
         inkscape:connector-curvature="0" /><path
         d="m 1392.5,610 0,-42.5"
         style="fill:none;stroke:#000000;stroke-width:2.5;stroke-linecap:butt;stroke-linejoin:miter;stroke-miterlimit:10;stroke-opacity:1;stroke-dasharray:none"
         id="path3467"
         inkscape:connector-curvature="0" /><path
         d="m 1597.5,610 0,-42.5"
         style="fill:none;stroke:#000000;stroke-width:2.5;stroke-linecap:butt;stroke-linejoin:miter;stroke-miterlimit:10;stroke-opacity:1;stroke-dasharray:none"
         id="path3469"
         inkscape:connector-curvature="0" /><path
         d="m 1805,652.5 0,-85"
         style="fill:none;stroke:#000000;stroke-width:2.5;stroke-linecap:butt;stroke-linejoin:miter;stroke-miterlimit:10;stroke-opacity:1;stroke-dasharray:none"
         id="path3471"
         inkscape:connector-curvature="0" /><path
         d="m 2010,610 0,-42.5"
         style="fill:none;stroke:#000000;stroke-width:2.5;stroke-linecap:butt;stroke-linejoin:miter;stroke-miterlimit:10;stroke-opacity:1;stroke-dasharray:none"
         id="path3473"
         inkscape:connector-curvature="0" /><path
         d="m 2217.5,610 0,-42.5"
         style="fill:none;stroke:#000000;stroke-width:2.5;stroke-linecap:butt;stroke-linejoin:miter;stroke-miterlimit:10;stroke-opacity:1;stroke-dasharray:none"
         id="path3475"
         inkscape:connector-curvature="0" /><path
         d="m 2422.5,610 0,-42.5"
         style="fill:none;stroke:#000000;stroke-width:2.5;stroke-linecap:butt;stroke-linejoin:miter;stroke-miterlimit:10;stroke-opacity:1;stroke-dasharray:none"
         id="path3477"
         inkscape:connector-curvature="0" /><path
         d="m 2630,652.5 0,-85"
         style="fill:none;stroke:#000000;stroke-width:2.5;stroke-linecap:butt;stroke-linejoin:miter;stroke-miterlimit:10;stroke-opacity:1;stroke-dasharray:none"
         id="path3479"
         inkscape:connector-curvature="0" /><path
         d="m 2835,610 0,-42.5"
         style="fill:none;stroke:#000000;stroke-width:2.5;stroke-linecap:butt;stroke-linejoin:miter;stroke-miterlimit:10;stroke-opacity:1;stroke-dasharray:none"
         id="path3481"
         inkscape:connector-curvature="0" /><path
         d="m 3040,610 0,-42.5"
         style="fill:none;stroke:#000000;stroke-width:2.5;stroke-linecap:butt;stroke-linejoin:miter;stroke-miterlimit:10;stroke-opacity:1;stroke-dasharray:none"
         id="path3483"
         inkscape:connector-curvature="0" /><path
         d="m 3247.5,610 0,-42.5"
         style="fill:none;stroke:#000000;stroke-width:2.5;stroke-linecap:butt;stroke-linejoin:miter;stroke-miterlimit:10;stroke-opacity:1;stroke-dasharray:none"
         id="path3485"
         inkscape:connector-curvature="0" /><path
         d="m 3452.5,652.5 0,-85"
         style="fill:none;stroke:#000000;stroke-width:2.5;stroke-linecap:butt;stroke-linejoin:miter;stroke-miterlimit:10;stroke-opacity:1;stroke-dasharray:none"
         id="path3487"
         inkscape:connector-curvature="0" /><path
         d="m 3660,610 0,-42.5"
         style="fill:none;stroke:#000000;stroke-width:2.5;stroke-linecap:butt;stroke-linejoin:miter;stroke-miterlimit:10;stroke-opacity:1;stroke-dasharray:none"
         id="path3489"
         inkscape:connector-curvature="0" /><path
         d="m 3865,610 0,-42.5"
         style="fill:none;stroke:#000000;stroke-width:2.5;stroke-linecap:butt;stroke-linejoin:miter;stroke-miterlimit:10;stroke-opacity:1;stroke-dasharray:none"
         id="path3491"
         inkscape:connector-curvature="0" /><path
         d="m 4072.5,610 0,-42.5"
         style="fill:none;stroke:#000000;stroke-width:2.5;stroke-linecap:butt;stroke-linejoin:miter;stroke-miterlimit:10;stroke-opacity:1;stroke-dasharray:none"
         id="path3493"
         inkscape:connector-curvature="0" /><path
         d="m 4277.5,652.5 0,-85"
         style="fill:none;stroke:#000000;stroke-width:2.5;stroke-linecap:butt;stroke-linejoin:miter;stroke-miterlimit:10;stroke-opacity:1;stroke-dasharray:none"
         id="path3495"
         inkscape:connector-curvature="0" /><path
         d="m 4485,610 0,-42.5"
         style="fill:none;stroke:#000000;stroke-width:2.5;stroke-linecap:butt;stroke-linejoin:miter;stroke-miterlimit:10;stroke-opacity:1;stroke-dasharray:none"
         id="path3497"
         inkscape:connector-curvature="0" /><path
         d="m 4690,610 0,-42.5"
         style="fill:none;stroke:#000000;stroke-width:2.5;stroke-linecap:butt;stroke-linejoin:miter;stroke-miterlimit:10;stroke-opacity:1;stroke-dasharray:none"
         id="path3499"
         inkscape:connector-curvature="0" /><path
         d="m 4897.5,610 0,-42.5"
         style="fill:none;stroke:#000000;stroke-width:2.5;stroke-linecap:butt;stroke-linejoin:miter;stroke-miterlimit:10;stroke-opacity:1;stroke-dasharray:none"
         id="path3501"
         inkscape:connector-curvature="0" /><path
         d="m 5102.5,652.5 0,-85"
         style="fill:none;stroke:#000000;stroke-width:2.5;stroke-linecap:butt;stroke-linejoin:miter;stroke-miterlimit:10;stroke-opacity:1;stroke-dasharray:none"
         id="path3503"
         inkscape:connector-curvature="0" /><path
         d="m 980,652.5 0,-85"
         style="fill:none;stroke:#000000;stroke-width:2.5;stroke-linecap:butt;stroke-linejoin:miter;stroke-miterlimit:10;stroke-opacity:1;stroke-dasharray:none"
         id="path3505"
         inkscape:connector-curvature="0" /><path
         d="m 772.5,610 0,-42.5"
         style="fill:none;stroke:#000000;stroke-width:2.5;stroke-linecap:butt;stroke-linejoin:miter;stroke-miterlimit:10;stroke-opacity:1;stroke-dasharray:none"
         id="path3507"
         inkscape:connector-curvature="0" /><g
         id="g3509"
         transform="scale(10,10)"><text
           transform="matrix(1,0,0,-1,93.1875,35.5)"
           id="text3511"><tspan
             style="font-size:19.25px;font-style:italic;font-variant:normal;writing-mode:lr-tb;fill:#000000;fill-opacity:1;fill-rule:nonzero;stroke:none;font-family:Times New Roman;-inkscape-font-specification:Times-Italic"
             x="0 82.499916 164.99983 247.24989 329.74982 407.43723 417.06223"
             y="0"
             sodipodi:role="line"
             id="tspan3513">0246810</tspan></text>
</g></g></g></svg>