<?xml version="1.0" encoding="UTF-8" standalone="no"?>
<!-- Created with Inkscape (http://www.inkscape.org/) -->

<svg
   xmlns:dc="http://purl.org/dc/elements/1.1/"
   xmlns:cc="http://creativecommons.org/ns#"
   xmlns:rdf="http://www.w3.org/1999/02/22-rdf-syntax-ns#"
   xmlns:svg="http://www.w3.org/2000/svg"
   xmlns="http://www.w3.org/2000/svg"
   xmlns:sodipodi="http://sodipodi.sourceforge.net/DTD/sodipodi-0.dtd"
   xmlns:inkscape="http://www.inkscape.org/namespaces/inkscape"
   id="svg2"
   version="1.1"
   inkscape:version="0.47pre4 r22446"
   width="280.68124"
   height="548.67554"
   xml:space="preserve"
   sodipodi:docname="channel_scheme.pdf"><metadata
     id="metadata8"><rdf:RDF><cc:Work
         rdf:about=""><dc:format>image/svg+xml</dc:format><dc:type
           rdf:resource="http://purl.org/dc/dcmitype/StillImage" /><dc:title></dc:title></cc:Work></rdf:RDF></metadata><defs
     id="defs6"><marker
       inkscape:stockid="Arrow1Mend"
       orient="auto"
       refY="0"
       refX="0"
       id="Arrow1Mend"
       style="overflow:visible"><path
         id="path4438"
         d="M 0,0 5,-5 -12.5,0 5,5 0,0 z"
         style="fill-rule:evenodd;stroke:#000000;stroke-width:1pt;marker-start:none"
         transform="matrix(-0.4,0,0,-0.4,-4,0)" /></marker><marker
       inkscape:stockid="Arrow1Lstart"
       orient="auto"
       refY="0"
       refX="0"
       id="Arrow1Lstart"
       style="overflow:visible"><path
         id="path4429"
         d="M 0,0 5,-5 -12.5,0 5,5 0,0 z"
         style="fill-rule:evenodd;stroke:#000000;stroke-width:1pt;marker-start:none"
         transform="matrix(0.8,0,0,0.8,10,0)" /></marker><marker
       inkscape:stockid="Arrow1Lend"
       orient="auto"
       refY="0"
       refX="0"
       id="Arrow1Lend"
       style="overflow:visible"><path
         id="path4432"
         d="M 0,0 5,-5 -12.5,0 5,5 0,0 z"
         style="fill-rule:evenodd;stroke:#000000;stroke-width:1pt;marker-start:none"
         transform="matrix(-0.8,0,0,-0.8,-10,0)" /></marker><inkscape:perspective
       sodipodi:type="inkscape:persp3d"
       inkscape:vp_x="0 : 0.5 : 1"
       inkscape:vp_y="0 : 1000 : 0"
       inkscape:vp_z="1 : 0.5 : 1"
       inkscape:persp3d-origin="0.5 : 0.33333333 : 1"
       id="perspective10" /><clipPath
       clipPathUnits="userSpaceOnUse"
       id="clipPath298"><path
         d="m 0,0 0,8420 5950,0 L 5950,0 0,0 z m 2781.3,3341.53 61.41,-14.12 -61.41,-14.12 82.91,0 0,28.24 -82.91,0 z"
         id="path300" /></clipPath><clipPath
       clipPathUnits="userSpaceOnUse"
       id="clipPath316"><path
         d="m 0,0 0,8420 5950,0 L 5950,0 0,0 z m 2217.27,6342.77 61.42,-14.12 -61.42,-14.12 82.91,0 0,28.24 -82.91,0 z"
         id="path318" /></clipPath><clipPath
       clipPathUnits="userSpaceOnUse"
       id="clipPath334"><path
         d="m 0,0 0,8420 5950,0 L 5950,0 0,0 z m 3269.57,6342.77 61.42,-14.12 -61.42,-14.12 82.92,0 0,28.24 -82.92,0 z"
         id="path336" /></clipPath><inkscape:perspective
       id="perspective3208"
       inkscape:persp3d-origin="0.5 : 0.33333333 : 1"
       inkscape:vp_z="1 : 0.5 : 1"
       inkscape:vp_y="0 : 1000 : 0"
       inkscape:vp_x="0 : 0.5 : 1"
       sodipodi:type="inkscape:persp3d" /><inkscape:perspective
       id="perspective3259"
       inkscape:persp3d-origin="0.5 : 0.33333333 : 1"
       inkscape:vp_z="1 : 0.5 : 1"
       inkscape:vp_y="0 : 1000 : 0"
       inkscape:vp_x="0 : 0.5 : 1"
       sodipodi:type="inkscape:persp3d" /><inkscape:perspective
       id="perspective3284"
       inkscape:persp3d-origin="0.5 : 0.33333333 : 1"
       inkscape:vp_z="1 : 0.5 : 1"
       inkscape:vp_y="0 : 1000 : 0"
       inkscape:vp_x="0 : 0.5 : 1"
       sodipodi:type="inkscape:persp3d" /><inkscape:perspective
       id="perspective3313"
       inkscape:persp3d-origin="0.5 : 0.33333333 : 1"
       inkscape:vp_z="1 : 0.5 : 1"
       inkscape:vp_y="0 : 1000 : 0"
       inkscape:vp_x="0 : 0.5 : 1"
       sodipodi:type="inkscape:persp3d" /><inkscape:perspective
       id="perspective3342"
       inkscape:persp3d-origin="0.5 : 0.33333333 : 1"
       inkscape:vp_z="1 : 0.5 : 1"
       inkscape:vp_y="0 : 1000 : 0"
       inkscape:vp_x="0 : 0.5 : 1"
       sodipodi:type="inkscape:persp3d" /><inkscape:perspective
       id="perspective3397"
       inkscape:persp3d-origin="0.5 : 0.33333333 : 1"
       inkscape:vp_z="1 : 0.5 : 1"
       inkscape:vp_y="0 : 1000 : 0"
       inkscape:vp_x="0 : 0.5 : 1"
       sodipodi:type="inkscape:persp3d" /><inkscape:perspective
       id="perspective5810"
       inkscape:persp3d-origin="0.5 : 0.33333333 : 1"
       inkscape:vp_z="1 : 0.5 : 1"
       inkscape:vp_y="0 : 1000 : 0"
       inkscape:vp_x="0 : 0.5 : 1"
       sodipodi:type="inkscape:persp3d" /><marker
       inkscape:stockid="Arrow1Lstart"
       orient="auto"
       refY="0"
       refX="0"
       id="Arrow1Lstart-8"
       style="overflow:visible"><path
         id="path4429-8"
         d="M 0,0 5,-5 -12.5,0 5,5 0,0 z"
         style="fill-rule:evenodd;stroke:#000000;stroke-width:1pt;marker-start:none"
         transform="matrix(0.8,0,0,0.8,10,0)" /></marker></defs><sodipodi:namedview
     pagecolor="#ffffff"
     bordercolor="#666666"
     borderopacity="1"
     objecttolerance="10"
     gridtolerance="10"
     guidetolerance="10"
     inkscape:pageopacity="0"
     inkscape:pageshadow="2"
     inkscape:window-width="1280"
     inkscape:window-height="943"
     id="namedview4"
     showgrid="true"
     inkscape:snap-object-midpoints="true"
     inkscape:snap-grids="true"
     inkscape:snap-center="false"
     inkscape:zoom="7.1752969"
     inkscape:cx="68.539998"
     inkscape:cy="4.2004742"
     inkscape:window-x="0"
     inkscape:window-y="25"
     inkscape:window-maximized="1"
     inkscape:current-layer="g14"
     inkscape:object-paths="true"><inkscape:grid
       type="xygrid"
       id="grid12446"
       empspacing="5"
       visible="true"
       enabled="true"
       snapvisiblegridlinesonly="true" /></sodipodi:namedview><g
     id="g12"
     inkscape:groupmode="layer"
     inkscape:label="ink_ext_XXXXXX"
     transform="matrix(1.25,0,0,-1.25,-228.49678,809.10913)"><g
       id="g14"
       transform="scale(0.1,0.1)"><g
   id="g16"
   transform="scale(1.04184,-0.958156)"><path
     d="m 1931.71,-3987.08 87.94,0"
     style="fill:none;stroke:#000000;stroke-width:3.68448997;stroke-linecap:butt;stroke-linejoin:miter;stroke-miterlimit:10;stroke-opacity:1;stroke-dasharray:none"
     id="path18" /></g><g
   id="g20"
   transform="scale(1.04184,-0.958156)"><path
     d="m 1931.71,-3972.34 87.94,0"
     style="fill:none;stroke:#000000;stroke-width:3.68448997;stroke-linecap:butt;stroke-linejoin:miter;stroke-miterlimit:10;stroke-opacity:1;stroke-dasharray:none"
     id="path22" /></g><g
   id="g24"
   transform="scale(1.04184,-0.958156)"><path
     d="m 3468.88,-3987.08 87.93,0"
     style="fill:none;stroke:#000000;stroke-width:3.68448997;stroke-linecap:butt;stroke-linejoin:miter;stroke-miterlimit:10;stroke-opacity:1;stroke-dasharray:none"
     id="path26" /></g><g
   id="g28"
   transform="scale(1.04184,-0.958156)"><path
     d="m 3468.88,-3972.34 87.93,0"
     style="fill:none;stroke:#000000;stroke-width:3.68448997;stroke-linecap:butt;stroke-linejoin:miter;stroke-miterlimit:10;stroke-opacity:1;stroke-dasharray:none"
     id="path30" /></g><g
   id="g52"
   transform="scale(1.04184,-0.958156)"><path
     d="m 2239.24,-3870.16 0,58.46 -219.59,0 0,-58.46 219.59,0 z"
     style="fill:none;stroke:#000000;stroke-width:3.68448997;stroke-linecap:butt;stroke-linejoin:miter;stroke-miterlimit:10;stroke-opacity:1;stroke-dasharray:none"
     id="path54" /></g><g
   id="g56"
   transform="scale(1.04184,-0.958156)"><path
     d="m 1975.92,-3840.68 43.73,0"
     style="fill:none;stroke:#000000;stroke-width:3.68448997;stroke-linecap:butt;stroke-linejoin:miter;stroke-miterlimit:10;stroke-opacity:1;stroke-dasharray:none"
     id="path58" /></g><g
   id="g60"
   transform="scale(1.04184,-0.958156)"><path
     d="m 2239.24,-3840.68 102.68,0"
     style="fill:none;stroke:#000000;stroke-width:3.68448997;stroke-linecap:butt;stroke-linejoin:miter;stroke-miterlimit:10;stroke-opacity:1;stroke-dasharray:none"
     id="path62" /></g><g
   id="g64"
   transform="scale(1.04184,-0.958156)"><path
     d="m 2341.92,-3884.89 0,87.93"
     style="fill:none;stroke:#000000;stroke-width:3.68448997;stroke-linecap:butt;stroke-linejoin:miter;stroke-miterlimit:10;stroke-opacity:1;stroke-dasharray:none"
     id="path66" /></g><g
   id="g68"
   transform="scale(1.04184,-0.958156)"><path
     d="m 2206.82,-6490.57 0,-116.92 58.46,0"
     style="fill:none;stroke:#000000;stroke-width:3.68448997;stroke-linecap:butt;stroke-linejoin:miter;stroke-miterlimit:10;stroke-opacity:1;stroke-dasharray:none"
     id="path70" /></g><g
   id="g72"
   transform="scale(1.04184,-0.958156)"><path
     d="m 2170.96,-6399.68 73.19,0 0,219.59 -73.19,0 0,-219.59 z"
     style="fill:none;stroke:#000000;stroke-width:3.68448997;stroke-linecap:butt;stroke-linejoin:miter;stroke-miterlimit:10;stroke-opacity:1;stroke-dasharray:none"
     id="path74" /></g><g
   id="g76"
   transform="scale(1.04184,-0.958156)"><path
     d="m 2258.89,-6472.88 -102.67,0"
     style="fill:none;stroke:#000000;stroke-width:3.68448997;stroke-linecap:butt;stroke-linejoin:miter;stroke-miterlimit:10;stroke-opacity:1;stroke-dasharray:none"
     id="path78" /></g><g
   id="g80"
   transform="scale(1.04184,-0.958156)"><path
     d="m 2258.89,-6487.62 -102.67,0"
     style="fill:none;stroke:#000000;stroke-width:3.68448997;stroke-linecap:butt;stroke-linejoin:miter;stroke-miterlimit:10;stroke-opacity:1;stroke-dasharray:none"
     id="path82" /></g><g
   id="g84"
   transform="scale(1.04184,-0.958156)"><path
     d="m 2206.82,-6398.21 0,-73.2"
     style="fill:none;stroke:#000000;stroke-width:3.68448997;stroke-linecap:butt;stroke-linejoin:miter;stroke-miterlimit:10;stroke-opacity:1;stroke-dasharray:none"
     id="path86" /></g><g
   id="g88"
   transform="scale(1.04184,-0.958156)"><path
     d="m 2209.27,-6107.38 0,-73.2"
     style="fill:none;stroke:#000000;stroke-width:3.68448997;stroke-linecap:butt;stroke-linejoin:miter;stroke-miterlimit:10;stroke-opacity:1;stroke-dasharray:none"
     id="path90" /></g><g
   id="g92"
   transform="scale(1.04184,-0.958156)"><path
     d="m 2266.75,-6571.62 0,-73.2 219.6,0 0,73.2 -219.6,0 z"
     style="fill:none;stroke:#000000;stroke-width:3.68448997;stroke-linecap:butt;stroke-linejoin:miter;stroke-miterlimit:10;stroke-opacity:1;stroke-dasharray:none"
     id="path94" /></g><g
   id="g96"
   transform="scale(1.04184,-0.958156)"><path
     d="m 2489.79,-6607.49 92.85,0"
     style="fill:none;stroke:#000000;stroke-width:3.68448997;stroke-linecap:butt;stroke-linejoin:miter;stroke-miterlimit:10;stroke-opacity:1;stroke-dasharray:none"
     id="path98" /></g><g
   id="g100"
   transform="scale(1.04184,-0.958156)"><path
     d="m 2580.67,-6654.65 0,90.89"
     style="fill:none;stroke:#000000;stroke-width:3.68448997;stroke-linecap:butt;stroke-linejoin:miter;stroke-miterlimit:10;stroke-opacity:1;stroke-dasharray:none"
     id="path102" /></g><g
   id="g104"
   transform="scale(1.04184,-0.958156)"><path
     d="m 3210.47,-6495.48 0,-116.92 58.46,0"
     style="fill:none;stroke:#000000;stroke-width:3.68448997;stroke-linecap:butt;stroke-linejoin:miter;stroke-miterlimit:10;stroke-opacity:1;stroke-dasharray:none"
     id="path106" /></g><g
   id="g108"
   transform="scale(1.04184,-0.958156)"><path
     d="m 3174.61,-6404.59 73.2,0 0,219.59 -73.2,0 0,-219.59 z"
     style="fill:none;stroke:#000000;stroke-width:3.68448997;stroke-linecap:butt;stroke-linejoin:miter;stroke-miterlimit:10;stroke-opacity:1;stroke-dasharray:none"
     id="path110" /></g><g
   id="g112"
   transform="scale(1.04184,-0.958156)"><path
     d="m 3262.55,-6477.79 -102.68,0"
     style="fill:none;stroke:#000000;stroke-width:3.68448997;stroke-linecap:butt;stroke-linejoin:miter;stroke-miterlimit:10;stroke-opacity:1;stroke-dasharray:none"
     id="path114" /></g><g
   id="g116"
   transform="scale(1.04184,-0.958156)"><path
     d="m 3262.55,-6492.53 -102.68,0"
     style="fill:none;stroke:#000000;stroke-width:3.68448997;stroke-linecap:butt;stroke-linejoin:miter;stroke-miterlimit:10;stroke-opacity:1;stroke-dasharray:none"
     id="path118" /></g><g
   id="g120"
   transform="scale(1.04184,-0.958156)"><path
     d="m 3210.47,-6403.12 0,-73.2"
     style="fill:none;stroke:#000000;stroke-width:3.68448997;stroke-linecap:butt;stroke-linejoin:miter;stroke-miterlimit:10;stroke-opacity:1;stroke-dasharray:none"
     id="path122" /></g><g
   id="g124"
   transform="scale(1.04184,-0.958156)"><path
     d="m 3212.44,-6112.29 0,-73.2"
     style="fill:none;stroke:#000000;stroke-width:3.68448997;stroke-linecap:butt;stroke-linejoin:miter;stroke-miterlimit:10;stroke-opacity:1;stroke-dasharray:none"
     id="path126" /></g><g
   id="g128"
   transform="scale(1.04184,-0.958156)"><path
     d="m 3270.41,-6576.54 0,-73.19 219.59,0 0,73.19 -219.59,0 z"
     style="fill:none;stroke:#000000;stroke-width:3.68448997;stroke-linecap:butt;stroke-linejoin:miter;stroke-miterlimit:10;stroke-opacity:1;stroke-dasharray:none"
     id="path130" /></g><g
   id="g132"
   transform="scale(1.04184,-0.958156)"><path
     d="m 3493.44,-6612.4 92.85,0"
     style="fill:none;stroke:#000000;stroke-width:3.68448997;stroke-linecap:butt;stroke-linejoin:miter;stroke-miterlimit:10;stroke-opacity:1;stroke-dasharray:none"
     id="path134" /></g><g
   id="g136"
   transform="scale(1.04184,-0.958156)"><path
     d="m 3584.33,-6659.56 0,90.89"
     style="fill:none;stroke:#000000;stroke-width:3.68448997;stroke-linecap:butt;stroke-linejoin:miter;stroke-miterlimit:10;stroke-opacity:1;stroke-dasharray:none"
     id="path138" /></g><g
   id="g140"
   transform="scale(10,10)"><text
   transform="matrix(1,0,0,-0.91967554,300.90531,360.795)"
   id="text150" />

<text
   transform="matrix(1,0,0,-0.91967554,345.12664,599.209)"
   id="text156"><tspan
     style="font-size:6.14185095px;font-variant:normal;font-weight:normal;writing-mode:lr-tb;fill:#000000;fill-opacity:1;fill-rule:nonzero;stroke:none;font-family:Times New Roman;-inkscape-font-specification:Times-Roman"
     x="0"
     y="0"
     id="tspan158" /></text>

<text
   transform="matrix(1,0,0,-0.91967554,349.73289,599.209)"
   id="text160"><tspan
     style="font-size:9.9805088px;font-variant:normal;font-weight:normal;writing-mode:lr-tb;fill:#000000;fill-opacity:1;fill-rule:nonzero;stroke:none;font-family:Times New Roman;-inkscape-font-specification:Times-Roman"
     x="0"
     sodipodi:role="line"
     id="tspan162"
     y="0" /></text>

<text
   transform="matrix(1,0,0,-0.91967554,239.89691,599.209)"
   id="text164"><tspan
     style="font-size:6.14185095px;font-variant:normal;font-weight:normal;writing-mode:lr-tb;fill:#000000;fill-opacity:1;fill-rule:nonzero;stroke:none;font-family:Times New Roman;-inkscape-font-specification:Times-Roman"
     x="0"
     y="0"
     id="tspan166" /></text>

<text
   transform="matrix(1,0,0,-0.91967554,244.50315,599.209)"
   id="text168"><tspan
     style="font-size:9.9805088px;font-variant:normal;font-weight:normal;writing-mode:lr-tb;fill:#000000;fill-opacity:1;fill-rule:nonzero;stroke:none;font-family:Times New Roman;-inkscape-font-specification:Times-Roman"
     x="0"
     y="0"
     id="tspan170" /></text>

</g><path
   d="m 2311.95,5854.18 c 0,-5.46 -4.81,-9.89 -10.74,-9.89 -5.94,0 -10.75,4.43 -10.75,9.89 0,5.45 4.81,9.88 10.75,9.88 5.93,0 10.74,-4.43 10.74,-9.88"
   style="fill:#000000;fill-opacity:1;fill-rule:evenodd;stroke:none"
   id="path172" /><g
   id="g174"
   transform="scale(1.04184,-0.958156)"><path
     d="m 2219.1,-6109.83 c 0,5.69 -4.62,10.31 -10.32,10.31 -5.69,0 -10.32,-4.62 -10.32,-10.31 0,-5.7 4.63,-10.32 10.32,-10.32 5.7,0 10.32,4.62 10.32,10.32 z"
     style="fill:none;stroke:#000000;stroke-width:3.68448997;stroke-linecap:butt;stroke-linejoin:miter;stroke-miterlimit:10;stroke-opacity:1;stroke-dasharray:none"
     id="path176" /></g><path
   d="m 3357.61,5855.59 c 0,-5.46 -4.82,-9.89 -10.75,-9.89 -5.93,0 -10.75,4.43 -10.75,9.89 0,5.46 4.82,9.88 10.75,9.88 5.93,0 10.75,-4.42 10.75,-9.88"
   style="fill:#000000;fill-opacity:1;fill-rule:evenodd;stroke:none"
   id="path178" /><g
   id="g180"
   transform="scale(1.04184,-0.958156)"><path
     d="m 3222.75,-6111.31 c 0,5.69 -4.62,10.32 -10.31,10.32 -5.7,0 -10.32,-4.63 -10.32,-10.32 0,-5.7 4.62,-10.31 10.32,-10.31 5.69,0 10.31,4.61 10.31,10.31 z"
     style="fill:none;stroke:#000000;stroke-width:3.68448997;stroke-linecap:butt;stroke-linejoin:miter;stroke-miterlimit:10;stroke-opacity:1;stroke-dasharray:none"
     id="path182" /></g><path
   d="m 3668.79,3679.97 c 0,-4.94 -4.35,-8.94 -9.72,-8.94 -5.37,0 -9.73,4 -9.73,8.94 0,4.94 4.36,8.94 9.73,8.94 5.37,0 9.72,-4 9.72,-8.94"
   style="fill:#000000;fill-opacity:1;fill-rule:evenodd;stroke:none"
   id="path190" /><g
   id="g192"
   transform="scale(1.04184,-0.958156)"><path
     d="m 3521.44,-3840.68 c 0,5.16 -4.18,9.33 -9.33,9.33 -5.16,0 -9.34,-4.17 -9.34,-9.33 0,-5.15 4.18,-9.33 9.34,-9.33 5.15,0 9.33,4.18 9.33,9.33 z"
     style="fill:none;stroke:#000000;stroke-width:3.68448997;stroke-linecap:butt;stroke-linejoin:miter;stroke-miterlimit:10;stroke-opacity:1;stroke-dasharray:none"
     id="path194" /></g><path
   d="m 2070.89,3679.03 c 0,-6.24 -5.51,-11.3 -12.29,-11.3 -6.78,0 -12.28,5.06 -12.28,11.3 0,6.24 5.5,11.29 12.28,11.29 6.78,0 12.29,-5.05 12.29,-11.29"
   style="fill:#000000;fill-opacity:1;fill-rule:evenodd;stroke:none"
   id="path196" /><g
   id="g198"
   transform="scale(1.04184,-0.958156)"><path
     d="m 1987.71,-3839.69 c 0,6.51 -5.28,11.79 -11.79,11.79 -6.51,0 -11.79,-5.28 -11.79,-11.79 0,-6.52 5.28,-11.8 11.79,-11.8 6.51,0 11.79,5.28 11.79,11.8 z"
     style="fill:none;stroke:#000000;stroke-width:3.68448997;stroke-linecap:butt;stroke-linejoin:miter;stroke-miterlimit:10;stroke-opacity:1;stroke-dasharray:none"
     id="path200" /></g><g
   id="g202"
   transform="scale(1.04184,-0.958156)"><path
     d="m 1902.72,-5817.04 146.4,0 0,1610.37 -146.4,0 0,-1610.37 z"
     style="fill:none;stroke:#000000;stroke-width:7.36897993;stroke-linecap:butt;stroke-linejoin:miter;stroke-miterlimit:10;stroke-opacity:1;stroke-dasharray:none"
     id="path204" /></g><g
   id="g206"
   transform="scale(1.04184,-0.958156)"><path
     d="m 2415.11,-5817.04 146.4,0 0,1610.37 -146.4,0 0,-1610.37 z"
     style="fill:none;stroke:#000000;stroke-width:7.36897993;stroke-linecap:butt;stroke-linejoin:miter;stroke-miterlimit:10;stroke-opacity:1;stroke-dasharray:none"
     id="path208" /></g><g
   id="g210"
   transform="scale(1.04184,-0.958156)"><path
     d="m 2927.5,-5817.04 146.4,0 0,1610.37 -146.4,0 0,-1610.37 z"
     style="fill:none;stroke:#000000;stroke-width:7.36897993;stroke-linecap:butt;stroke-linejoin:miter;stroke-miterlimit:10;stroke-opacity:1;stroke-dasharray:none"
     id="path212" /></g><g
   id="g214"
   transform="scale(1.04184,-0.958156)"><path
     d="m 3439.89,-5817.04 146.4,0 0,1610.37 -146.4,0 0,-1610.37 z"
     style="fill:none;stroke:#000000;stroke-width:7.36897993;stroke-linecap:butt;stroke-linejoin:miter;stroke-miterlimit:10;stroke-opacity:1;stroke-dasharray:none"
     id="path216" /></g><g
   id="g218"
   transform="scale(1.04184,-0.958156)"><path
     d="m 1975.92,-3987.08 0,-2122.26 512.39,0 0,2122.26 512.39,0 0,-2122.26 512.39,0 0,2122.26"
     style="fill:none;stroke:#000000;stroke-width:3.68448997;stroke-linecap:butt;stroke-linejoin:miter;stroke-miterlimit:10;stroke-opacity:1;stroke-dasharray:none"
     id="path220" /></g><g
   id="g222"
   transform="scale(1.04184,-0.958156)"><path
     d="m 3805.4,-3870.16 0,58.46 -219.11,0 0,-58.46 219.11,0 z"
     style="fill:none;stroke:#000000;stroke-width:3.68448997;stroke-linecap:butt;stroke-linejoin:miter;stroke-miterlimit:10;stroke-opacity:1;stroke-dasharray:none"
     id="path224" /></g><g
   id="g242"
   transform="scale(1.04184,-0.958156)"><path
     d="m 1975.92,-3972.34 0,424.45"
     style="fill:none;stroke:#000000;stroke-width:3.68448997;stroke-linecap:butt;stroke-linejoin:miter;stroke-miterlimit:10;stroke-opacity:1;stroke-dasharray:none"
     id="path244" /></g><g
   id="g246"
   transform="scale(1.04184,-0.958156)"><path
     d="m 3513.09,-3972.34 0,424.45"
     style="fill:none;stroke:#000000;stroke-width:3.68448997;stroke-linecap:butt;stroke-linejoin:miter;stroke-miterlimit:10;stroke-opacity:1;stroke-dasharray:none"
     id="path248" /></g><g
   id="g250"
   transform="scale(1.04184,-0.958156)"><path
     d="m 3513.09,-3840.68 73.2,0"
     style="fill:none;stroke:#000000;stroke-width:3.68448997;stroke-linecap:butt;stroke-linejoin:miter;stroke-miterlimit:10;stroke-opacity:1;stroke-dasharray:none"
     id="path252" /></g><g
   id="g254"
   transform="scale(1.04184,-0.958156)"><path
     d="m 3805.4,-3840.68 102.67,0"
     style="fill:none;stroke:#000000;stroke-width:3.68448997;stroke-linecap:butt;stroke-linejoin:miter;stroke-miterlimit:10;stroke-opacity:1;stroke-dasharray:none"
     id="path256" /></g><g
   id="g258"
   transform="scale(1.04184,-0.958156)"><path
     d="m 3908.07,-3884.89 0,87.93"
     style="fill:none;stroke:#000000;stroke-width:3.68448997;stroke-linecap:butt;stroke-linejoin:miter;stroke-miterlimit:10;stroke-opacity:1;stroke-dasharray:none"
     id="path260" /></g><g
   id="g262"
   transform="scale(1.04184,-0.958156)"><path
     d="m 1756.33,-3547.89 439.19,0 0,439.2 -439.19,0 0,-439.2 z"
     style="fill:none;stroke:#000000;stroke-width:3.68448997;stroke-linecap:butt;stroke-linejoin:miter;stroke-miterlimit:10;stroke-opacity:1;stroke-dasharray:none"
     id="path264" /></g><g
   id="g266"
   transform="scale(1.04184,-0.958156)"><path
     d="m 3293.5,-3547.89 439.19,0 0,439.2 -439.19,0 0,-439.2 z"
     style="fill:none;stroke:#000000;stroke-width:3.68448997;stroke-linecap:butt;stroke-linejoin:miter;stroke-miterlimit:10;stroke-opacity:1;stroke-dasharray:none"
     id="path268" /></g><g
   id="g270"
   transform="scale(1.04184,-0.958156)"><path
     d="m 3293.5,-2889.1 439.19,0 0,438.7 -439.19,0 0,-438.7 z"
     style="fill:none;stroke:#000000;stroke-width:3.68448997;stroke-linecap:butt;stroke-linejoin:miter;stroke-miterlimit:10;stroke-opacity:1;stroke-dasharray:none"
     id="path272" /></g><g
   id="g274"
   transform="scale(1.04184,-0.958156)"><path
     d="m 3513.09,-3108.69 0,219.59"
     style="fill:none;stroke:#000000;stroke-width:3.68448997;stroke-linecap:butt;stroke-linejoin:miter;stroke-miterlimit:10;stroke-opacity:1;stroke-dasharray:none"
     id="path276" /></g><g
   id="g278"
   transform="scale(1.04184,-0.958156)"><path
     d="m 1902.72,-2889.1 1171.18,0 0,438.7 -1171.18,0 0,-438.7 z"
     style="fill:none;stroke:#000000;stroke-width:3.68448997;stroke-linecap:butt;stroke-linejoin:miter;stroke-miterlimit:10;stroke-opacity:1;stroke-dasharray:none"
     id="path280" /></g><g
   id="g282"
   transform="scale(1.04184,-0.958156)"><path
     d="m 1975.92,-3108.69 0,219.59"
     style="fill:none;stroke:#000000;stroke-width:3.68448997;stroke-linecap:butt;stroke-linejoin:miter;stroke-miterlimit:10;stroke-opacity:1;stroke-dasharray:none"
     id="path284" /></g><g
   id="g286"
   transform="scale(1.04184,-0.958156)"><path
     d="m 3073.9,-2669.99 219.6,0"
     style="fill:none;stroke:#000000;stroke-width:3.68448997;stroke-linecap:butt;stroke-linejoin:miter;stroke-miterlimit:10;stroke-opacity:1;stroke-dasharray:none"
     id="path288" /></g><g
   id="g348"
   transform="scale(10,10)"><flowRoot
   xml:space="preserve"
   id="flowRoot3227"
   style="font-size:12px;font-style:normal;font-variant:normal;font-weight:normal;font-stretch:normal;fill:#000000;fill-opacity:1;stroke:none;font-family:Times New Roman;-inkscape-font-specification:'Times New Roman,'"><flowRegion
     id="flowRegion3229"><rect
       id="rect3231"
       width="25.643538"
       height="19.511387"
       x="293.22827"
       y="620.46216" /></flowRegion><flowPara
     id="flowPara3233" /></flowRoot><text
   xml:space="preserve"
   style="font-size:12px;font-style:normal;font-variant:normal;font-weight:normal;font-stretch:normal;fill:#000000;fill-opacity:1;stroke:none;font-family:Times New Roman;-inkscape-font-specification:'Times New Roman,'"
   x="268.69968"
   y="608.75531"
   id="text3235"
   transform="matrix(0.8,0,0,-0.8,0,842)"><tspan
     sodipodi:role="line"
     id="tspan3237"
     x="268.69968"
     y="608.75531">750</tspan></text>

<flowRoot
   xml:space="preserve"
   id="flowRoot3239"
   style="font-size:12px;font-style:normal;font-variant:normal;font-weight:normal;font-stretch:normal;fill:#000000;fill-opacity:1;stroke:none;font-family:Times New Roman;-inkscape-font-specification:'Times New Roman,'"
   transform="matrix(0.8,0,0,-0.8,0,842)"><flowRegion
     id="flowRegion3241"><rect
       id="rect3243"
       width="22.298729"
       height="12.264301"
       x="268.14221"
       y="570.28998" /></flowRegion><flowPara
     id="flowPara3245">22012</flowPara></flowRoot><text
   xml:space="preserve"
   style="font-size:9.60000038px;font-style:normal;font-variant:normal;font-weight:normal;font-stretch:normal;fill:#000000;fill-opacity:1;stroke:none;font-family:Times New Roman;-inkscape-font-specification:'Times New Roman,'"
   x="211.39194"
   y="-378.63245"
   id="text3247"
   transform="scale(1,-1)"><tspan
     sodipodi:role="line"
     id="tspan3249"
     x="211.39194"
     y="-378.63245">120</tspan></text>

<text
   xml:space="preserve"
   style="font-size:9.60000038px;font-style:normal;font-variant:normal;font-weight:normal;font-stretch:normal;fill:#000000;fill-opacity:1;stroke:none;font-family:Times New Roman;-inkscape-font-specification:'Times New Roman,'"
   x="371.48697"
   y="-378.56674"
   id="text3247-3"
   transform="scale(1,-1)"><tspan
     sodipodi:role="line"
     id="tspan3249-4"
     x="371.48697"
     y="-378.56674">120</tspan></text>

<text
   xml:space="preserve"
   style="font-size:9.60000038px;font-style:normal;font-variant:normal;font-weight:normal;font-stretch:normal;fill:#000000;fill-opacity:1;stroke:none;font-family:Times New Roman;-inkscape-font-specification:'Times New Roman,'"
   x="376.33112"
   y="-354.93945"
   id="text3235-8"
   transform="scale(1,-1)"><tspan
     sodipodi:role="line"
     id="tspan3237-9"
     x="376.33112"
     y="-354.93945">750</tspan></text>

<text
   xml:space="preserve"
   style="font-size:9.60000038px;font-style:normal;font-variant:normal;font-weight:normal;font-stretch:normal;fill:#000000;fill-opacity:1;stroke:none;font-family:Times New Roman;-inkscape-font-specification:'Times New Roman,'"
   x="346.96823"
   y="-640.41949"
   id="text3301"
   transform="scale(1,-1)"><tspan
     sodipodi:role="line"
     id="tspan3303"
     x="346.96823"
     y="-640.41949">50</tspan></text>

<text
   xml:space="preserve"
   style="font-size:9.60000038px;font-style:normal;font-variant:normal;font-weight:normal;font-stretch:normal;fill:#000000;fill-opacity:1;stroke:none;font-family:Times New Roman;-inkscape-font-specification:'Times New Roman,'"
   x="242.2113"
   y="-640.7998"
   id="text3301-8"
   transform="scale(1,-1)"><tspan
     sodipodi:role="line"
     id="tspan3303-4"
     x="242.2113"
     y="-640.7998">50</tspan></text>

<text
   xml:space="preserve"
   style="font-size:9.60000038px;font-style:normal;font-variant:normal;font-weight:normal;font-stretch:normal;fill:#000000;fill-opacity:1;stroke:none;font-family:Times New Roman;-inkscape-font-specification:'Times New Roman,'"
   x="238.38924"
   y="-617.93604"
   id="text3330"
   transform="scale(1,-1)"><tspan
     sodipodi:role="line"
     id="tspan3332"
     x="238.38924"
     y="-617.93604">2200</tspan></text>

<text
   xml:space="preserve"
   style="font-size:9.60000038px;font-style:normal;font-variant:normal;font-weight:normal;font-stretch:normal;fill:#000000;fill-opacity:1;stroke:none;font-family:Times New Roman;-inkscape-font-specification:'Times New Roman,'"
   x="343.23386"
   y="-618.00098"
   id="text3330-5"
   transform="scale(1,-1)"><tspan
     sodipodi:role="line"
     id="tspan3332-0"
     x="343.23386"
     y="-618.00098">2200</tspan></text>

<text
   xml:space="preserve"
   style="font-size:14px;font-style:normal;font-variant:normal;font-weight:normal;font-stretch:normal;fill:#000000;fill-opacity:1;stroke:none;font-family:Times New Roman;-inkscape-font-specification:'Times New Roman,'"
   x="450.16449"
   y="661.46399"
   id="text3359"
   transform="matrix(0.8,0,0,-0.8,0,842)"><tspan
     sodipodi:role="line"
     id="tspan3361"
     x="450.16449"
     y="661.46399" /></text>

</g><text
   xml:space="preserve"
   style="font-size:96px;font-style:normal;font-variant:normal;font-weight:normal;font-stretch:normal;fill:#000000;fill-opacity:1;stroke:none;font-family:Times New Roman;-inkscape-font-specification:'Times New Roman,'"
   x="2385.9639"
   y="-5998.3579"
   id="text3196"
   transform="scale(1,-1)"><tspan
     sodipodi:role="line"
     id="tspan3198"
     x="2385.9639"
     y="-5998.3579">4к3</tspan></text>

<text
   xml:space="preserve"
   style="font-size:96px;font-style:normal;font-variant:normal;font-weight:normal;font-stretch:normal;fill:#000000;fill-opacity:1;stroke:none;font-family:Times New Roman;-inkscape-font-specification:'Times New Roman,'"
   x="3423.8716"
   y="-6002.1611"
   id="text3196-1"
   transform="scale(1,-1)"><tspan
     sodipodi:role="line"
     id="tspan3198-7"
     x="3423.8716"
     y="-6002.1611">4к3</tspan></text>

<flowRoot
   xml:space="preserve"
   id="flowRoot3363"
   style="font-size:16px;font-style:normal;font-variant:normal;font-weight:normal;font-stretch:normal;fill:#000000;fill-opacity:1;stroke:none;font-family:Times New Roman;-inkscape-font-specification:'Times New Roman,'"><flowRegion
     id="flowRegion3365"><rect
       id="rect3367"
       width="33.111923"
       height="22.074615"
       x="387.88254"
       y="678.80829" /></flowRegion><flowPara
     id="flowPara3369" /></flowRoot><text
   xml:space="preserve"
   style="font-size:128px;font-style:normal;font-variant:normal;font-weight:normal;font-stretch:normal;fill:#000000;fill-opacity:1;stroke:none;font-family:Times New Roman;-inkscape-font-specification:'Times New Roman,'"
   x="3573.3167"
   y="-3151.3198"
   id="text3371"
   transform="scale(1,-1)"><tspan
     sodipodi:role="line"
     id="tspan3373"
     x="3573.3167"
     y="-3151.3198">УФ</tspan></text>

<text
   xml:space="preserve"
   style="font-size:128px;font-style:normal;font-variant:normal;font-weight:normal;font-stretch:normal;fill:#000000;fill-opacity:1;stroke:none;font-family:Times New Roman;-inkscape-font-specification:'Times New Roman,'"
   x="1961.8268"
   y="-3138.3923"
   id="text3371-4"
   transform="scale(1,-1)"><tspan
     sodipodi:role="line"
     id="tspan3373-9"
     x="1961.8268"
     y="-3138.3923">УФ</tspan></text>

<text
   xml:space="preserve"
   style="font-size:128px;font-style:normal;font-variant:normal;font-weight:normal;font-stretch:normal;fill:#000000;fill-opacity:1;stroke:none;font-family:Times New Roman;-inkscape-font-specification:'Times New Roman,'"
   x="3585.6355"
   y="-2530.9055"
   id="text3414"
   transform="scale(1,-1)"><tspan
     sodipodi:role="line"
     id="tspan3416"
     x="3585.6355"
     y="-2530.9055">ЛЗ</tspan></text>

<text
   xml:space="preserve"
   style="font-size:128px;font-style:normal;font-variant:normal;font-weight:normal;font-stretch:normal;fill:#000000;fill-opacity:1;stroke:none;font-family:Times New Roman;-inkscape-font-specification:'Times New Roman,'"
   x="2339.1367"
   y="-2553.2043"
   id="text3418"
   transform="scale(1,-1)"><tspan
     sodipodi:role="line"
     id="tspan3420"
     x="2339.1367"
     y="-2553.2043">экспандер</tspan></text>

<text
   xml:space="preserve"
   style="font-size:96px;font-style:normal;font-variant:normal;font-weight:normal;font-stretch:normal;fill:#000000;fill-opacity:1;stroke:none;font-family:Times New Roman;-inkscape-font-specification:'Times New Roman,'"
   x="3134.5955"
   y="-6360.6426"
   id="text3422"
   transform="scale(1,-1)"><tspan
     sodipodi:role="line"
     id="tspan3424"
     x="3134.5955"
     y="-6360.6426">К2</tspan></text>

<text
   xml:space="preserve"
   style="font-size:96px;font-style:normal;font-variant:normal;font-weight:normal;font-stretch:normal;fill:#000000;fill-opacity:1;stroke:none;font-family:Times New Roman;-inkscape-font-specification:'Times New Roman,'"
   x="2093.9351"
   y="-6363.7964"
   id="text3426"
   transform="scale(1,-1)"><tspan
     sodipodi:role="line"
     id="tspan3428"
     x="2093.9351"
     y="-6363.7964">К1</tspan></text>

<path
   style="fill:none;stroke:#000000;stroke-width:0.5;stroke-linecap:butt;stroke-linejoin:miter;stroke-miterlimit:4;stroke-opacity:1;stroke-dasharray:none;marker-start:url(#Arrow1Lstart);marker-end:none"
   d="m 418.23512,260.37608 -35.67415,0"
   id="path5242"
   transform="matrix(8,0,0,-8,0,8420)" /><path
   style="fill:none;stroke:#000000;stroke-width:4;stroke-linecap:butt;stroke-linejoin:miter;stroke-miterlimit:4;stroke-opacity:1;stroke-dasharray:none;marker-start:url(#Arrow1Lstart);marker-end:none"
   d="m 2293.3948,6332.2612 -285.3932,0"
   id="path5242-6" /><path
   style="fill:none;stroke:#000000;stroke-width:0.5;stroke-linecap:butt;stroke-linejoin:miter;stroke-miterlimit:4;stroke-opacity:1;stroke-dasharray:none;marker-end:url(#Arrow1Mend)"
   d="m 90.000002,515.64025 0,18"
   id="path12448"
   transform="matrix(8,0,0,-8,1827.9742,6472.873)"
   sodipodi:nodetypes="cc" /><text
   xml:space="preserve"
   style="font-size:112px;font-style:normal;font-variant:normal;font-weight:normal;font-stretch:normal;text-align:start;line-height:125%;writing-mode:lr-tb;text-anchor:start;fill:#000000;fill-opacity:1;stroke:none;font-family:Times New Roman;-inkscape-font-specification:'Times New Roman,'"
   x="2447.9053"
   y="-2104.7971"
   id="text12978"
   sodipodi:linespacing="125%"
   transform="scale(1,-1)"><tspan
     sodipodi:role="line"
     id="tspan12980"
     x="2447.9053"
     y="-2104.7971">ВЦП</tspan></text>
</g></g></svg>